<?xml version="1.0" encoding="UTF-8"?>
<svg id="Lag_2" data-name="Lag 2" xmlns="http://www.w3.org/2000/svg" viewBox="0 0 383.3 383.38">
  <defs>
    <style>
      .cls-1 {
        fill: #fff;
      }
    </style>
  </defs>
  <g id="Lag_1-2" data-name="Lag 1">
    <g>
      <path class="cls-1" d="m333.89,383.38H49.44c-.68-.24-1.34-.59-2.04-.7C20.28,378.31.11,355.14.08,327.71-.02,237.02-.03,146.33.08,55.64.12,25.08,25.07.12,55.64.08c90.67-.12,181.34-.1,272.02,0,25.11.02,46.79,16.88,53.55,41.14.76,2.73,1.4,5.49,2.09,8.23v284.51c-.24.68-.57,1.34-.71,2.03-4.57,23.47-18.35,38.61-41.19,45.53-2.46.75-5,1.24-7.51,1.86Zm-142.27-89.85c55.57.02,100.97-45.27,101.1-100.85.13-55.74-45.29-101.28-101.02-101.3-55.58-.02-100.97,45.26-101.09,100.84-.12,55.73,45.3,101.29,101.01,101.31Zm146-224.68c-.03-12.28-10.13-22.37-22.42-22.39-12.28-.01-22.42,10.06-22.48,22.33-.05,12.44,10.16,22.65,22.6,22.58,12.27-.07,22.32-10.22,22.29-22.52Z"/>
      <path class="cls-1" d="m333.89,383.38c2.5-.61,5.04-1.11,7.51-1.86,22.84-6.92,36.62-22.05,41.19-45.53.14-.7.47-1.36.71-2.03"/>
      <path class="cls-1" d="m270.26,192.35c.05,43.29-35.16,78.63-78.4,78.72-43.43.09-78.82-35.27-78.79-78.7.04-43.27,35.31-78.52,78.58-78.52,43.28,0,78.56,35.23,78.6,78.5Z"/>
    </g>
  </g>
</svg>