<?xml version="1.0" encoding="utf-8"?>
<!-- Generator: Adobe Illustrator 27.5.0, SVG Export Plug-In . SVG Version: 6.00 Build 0)  -->
<svg version="1.1" id="Lag_1" xmlns="http://www.w3.org/2000/svg" xmlns:xlink="http://www.w3.org/1999/xlink" x="0px" y="0px"
	 viewBox="0 0 1920 1080" style="enable-background:new 0 0 1920 1080;" xml:space="preserve">
<style type="text/css">
	.st0{fill:none;stroke:#70F054;stroke-width:70;stroke-miterlimit:10;}
</style>
<path id="Path_825" class="st0" d="M0,518c54,0,46.64-19.37,87.93,6.7s66.04,67.94,112.12,62.92s68.61-8.62,84.47-33.14
	s-4.44-46.44,9.74-59.58s78.8-11.82,91.28,19.7s31.01,67.05,62.39,59.55s53.8-73.46,129.82-77.56
	c76.02-4.11,91.49,79.18,129.01,73.47c37.53-5.71,40.24-44.07,67.47-40.59c27.23,3.48,29.18,49.84,81.34,51.7
	s89.76-70.57,134.47-69.23c44.72,1.34,63.73,24.45,118.14,65.09c54.41,40.63,107.26-73,189.36-73.59s48.58,62.87,72.08,66.22
	s84.02,14.37,119.16-26.57c35.14-40.94,77.7-48.02,92.61-15.11s16.78,81.48,56.18,59.36c39.4-22.12,3.04-111.81,57.39-102.27
	c54.35,9.54,25.71,75.6,91.67,74.39c65.96-1.21,87.36-73.24,133.38-73.24"/>
</svg>
