<?xml version="1.0" encoding="UTF-8"?>
<svg id="Lag_2" data-name="Lag 2" xmlns="http://www.w3.org/2000/svg" viewBox="0 0 243.22 243.22">
  <defs>
    <style>
      .cls-1, .cls-2 {
        fill: none;
        stroke: #fff;
        stroke-miterlimit: 10;
        stroke-width: 5px;
      }

      .cls-2 {
        stroke-dasharray: 0 0 11.91 11.91;
      }
    </style>
  </defs>
  <g id="Lag_2-2" data-name="Lag 2">
    <g>
      <g>
        <polyline class="cls-1" points="240.72 234.72 240.72 240.72 234.72 240.72"/>
        <line class="cls-2" x1="222.82" y1="240.72" x2="14.45" y2="240.72"/>
        <polyline class="cls-1" points="8.5 240.72 2.5 240.72 2.5 234.72"/>
        <line class="cls-2" x1="2.5" y1="222.82" x2="2.5" y2="14.45"/>
        <polyline class="cls-1" points="2.5 8.5 2.5 2.5 8.5 2.5"/>
        <line class="cls-2" x1="20.41" y1="2.5" x2="228.77" y2="2.5"/>
        <polyline class="cls-1" points="234.72 2.5 240.72 2.5 240.72 8.5"/>
        <line class="cls-2" x1="240.72" y1="20.41" x2="240.72" y2="228.77"/>
      </g>
      <path class="cls-1" d="m110.28,102.63c-4.46,0-8.79-.56-12.94.09-24.93,3.89-41.74,26.14-38.87,51.08,3.17,27.56,30.66,46.26,57.42,39.07,20.41-5.48,34.35-23.49,34.43-44.65.06-16.17.02-32.33.02-48.5v-2.35c10.7,7.39,22.1,11.09,34.72,11.17v-25.03c-9.61-.27-17.83-3.61-24.55-10.35-6.72-6.73-9.93-15-10.25-24.37h-24.99v2.7c-.02,31.8-.04,63.6-.06,95.4,0,.87,0,1.74-.04,2.6-.53,9.96-8.34,18.46-17.99,19.59-10.74,1.25-20.34-4.99-23.22-15.1-2.76-9.69,1.95-20.21,10.99-24.61,4.91-2.39,9.98-2.65,15.34-1.33v-25.42h0Z"/>
    </g>
  </g>
</svg>