<?xml version="1.0" encoding="UTF-8"?>
<svg id="Lag_2" data-name="Lag 2" xmlns="http://www.w3.org/2000/svg" viewBox="0 0 383.37 383.46">
  <defs>
    <style>
      .cls-1 {
        fill: #fff;
      }
    </style>
  </defs>
  <g id="Lag_1-2" data-name="Lag 1">
    <path class="cls-1" d="m347.44,383.46H36.04c-.31-.19-.6-.52-.92-.56C17.34,380.58-.07,364.27,0,339.68.28,241.11.1,142.55.16,43.98c0-3.96.24-8.03,1.15-11.86C5.9,12.67,22.24.14,42.85.13c85.07-.03,170.14-.01,255.22-.01,14.84,0,29.7-.33,44.53.11,17.42.52,29.95,9.09,37.28,24.91,1.59,3.44,2.35,7.27,3.49,10.92v311.47c-.26.8-.58,1.58-.76,2.39-3.61,15.84-13.07,26.43-28.45,31.67-2.2.75-4.48,1.26-6.72,1.87Zm-177.37-227.4c-8.32,0-16.42-1.04-24.17.17-46.56,7.27-77.94,48.81-72.58,95.39,5.92,51.46,57.25,86.39,107.23,72.96,38.12-10.24,64.14-43.86,64.3-83.38.12-30.19.03-60.38.03-90.57,0-1.27,0-2.54,0-4.39,19.98,13.8,41.26,20.7,64.84,20.85v-46.74c-17.94-.5-33.3-6.74-45.85-19.32-12.54-12.56-18.54-28.02-19.15-45.5h-46.67c0,1.85,0,3.45,0,5.05-.03,59.38-.07,118.76-.11,178.15,0,1.62,0,3.24-.08,4.86-.99,18.6-15.58,34.48-33.59,36.58-20.06,2.34-37.98-9.31-43.37-28.2-5.16-18.1,3.65-37.74,20.53-45.95,9.16-4.46,18.64-4.95,28.65-2.48v-47.47Z"/>
  </g>
</svg>