<svg id="Group_2164" data-name="Group 2164" xmlns="http://www.w3.org/2000/svg" width="69.317" height="54.945" viewBox="0 0 69.317 54.945">
  <path id="Path_1034" data-name="Path 1034" d="M28.079,63.731a1.682,1.682,0,0,0-.3.2,18.735,18.735,0,0,1-3.421,2.208,6.277,6.277,0,0,1-2.03.261,1.842,1.842,0,0,0-.458-.02,5.932,5.932,0,0,1-2.255-.154c-.883-.219-1.788-.35-2.679-.54a5.812,5.812,0,0,1-.932-.3A7.57,7.57,0,0,1,13.95,64.2c-.255-.212-.37-.587-.607-.831a7.243,7.243,0,0,1-1.308-2.208,20.068,20.068,0,0,1-.834-2.823,9.953,9.953,0,0,1-.283-1.207,8.345,8.345,0,0,1-.071-1.236c0-.672-.005-1.348.062-2.016a17.507,17.507,0,0,1,.434-2.866c.154-.565.247-1.146.386-1.716.078-.317.2-.622.29-.937a9.606,9.606,0,0,1,.869-1.809c.078-.152.177-.294.257-.445.061-.113.108-.234.205-.449a5.178,5.178,0,0,0-.733.048,4.85,4.85,0,0,1-2.349-.072c-.434-.117-.874-.213-1.311-.321a3.751,3.751,0,0,1-1.581-.847,4.2,4.2,0,0,0-.422-.287,6.274,6.274,0,0,1-1.53-1.6,22.642,22.642,0,0,1-1.4-2.592c-.1-.2-.24-.377-.33-.578-.21-.471-.427-.941-.592-1.428-.209-.619-.371-1.255-.55-1.884a1.112,1.112,0,0,1-.052-.3c0-.634.014-1.267.019-1.9a5.042,5.042,0,0,1,.937-2.864c.192-.28.391-.555.574-.841a6.805,6.805,0,0,1,1.717-1.706c.41-.311.785-.667,1.19-.986a2.652,2.652,0,0,1,.534-.3,11.294,11.294,0,0,1,1.136-.493c.506-.17,1.026-.3,1.544-.429a8.442,8.442,0,0,1,2.155-.505,4.29,4.29,0,0,0,1.034-.307c1.033-.274,2.064-.559,3.107-.794a9.683,9.683,0,0,1,2.459-.256c.115,0,.23-.011.4-.02-.385-.466-.722-.893-1.081-1.3a6.455,6.455,0,0,1-1.145-1.89c-.051-.127-.145-.238-.188-.366-.1-.29-.184-.587-.265-.883-.032-.116-.024-.243-.06-.357a3.371,3.371,0,0,1,.614-3.069,5.733,5.733,0,0,1,1.43-1.412,4.251,4.251,0,0,1,1.555-.66,15.354,15.354,0,0,1,1.871-.392,10.231,10.231,0,0,1,3.55.15,1.292,1.292,0,0,0,.306.055,7.817,7.817,0,0,1,2.57.751,2.372,2.372,0,0,1,1.351,1.422c.157.359.331.71.506,1.083.105-.039.19-.044.225-.088.343-.424.666-.865,1.018-1.281a8.413,8.413,0,0,1,2.21-2.145c.2-.108.217-.34.481-.42a7.9,7.9,0,0,1,2.2-.436c.39-.005.781-.016,1.171-.006A4.773,4.773,0,0,1,40.439,14.3a3.622,3.622,0,0,1,.845,1.1,26.779,26.779,0,0,1,1.777,3.843,6.62,6.62,0,0,1,.231,1.217,2.96,2.96,0,0,0,.776-.857c.308-.5.625-.992.94-1.487a.318.318,0,0,1,.1-.116c.551-.282.8-.866,1.233-1.252a6.54,6.54,0,0,1,1.73-1.2,10.114,10.114,0,0,1,2.09-.526,4.092,4.092,0,0,1,1.412.227c.236.045.468.105.7.155.742.157,1.495.275,2.222.482a2.331,2.331,0,0,1,1.06.941,8.975,8.975,0,0,1,1.273,2.69,2.919,2.919,0,0,1,.121.609q.149,1.069.285,2.138c.047.368-.113.734.061,1.119.082.181-.081.464-.1.7a2.327,2.327,0,0,1-.519,1.646c.19.035.3.094.367.061a9.627,9.627,0,0,1,2.244-.574c.716-.159,1.457-.2,2.184-.319a4.883,4.883,0,0,1,2.379.379A17.349,17.349,0,0,1,65.788,26a9.981,9.981,0,0,1,1.367.916,2.658,2.658,0,0,1,.926,1.4,5.559,5.559,0,0,1,.279,2.834.88.88,0,0,0-.008.258,7.476,7.476,0,0,1-.641,3.618c-.047.126-.038.272-.074.4-.043.161-.115.314-.159.475a2.406,2.406,0,0,0-.112.545.543.543,0,0,1-.27.516.851.851,0,0,0-.421.564,1.028,1.028,0,0,1-.153.265c-.335.554-.659,1.116-1.01,1.66a1.649,1.649,0,0,1-.556.64c-.482.22-.582.689-.9,1.082a3.1,3.1,0,0,0,.413.23,14.128,14.128,0,0,1,2.757,1.427,4.223,4.223,0,0,1,1.1,1.286,7.589,7.589,0,0,1,.941,2.344c.158.563.336,1.121.489,1.686a5.669,5.669,0,0,1,.152.811,22.255,22.255,0,0,1,.237,2.409,2.318,2.318,0,0,1-.346,1.38.453.453,0,0,0-.076.367.776.776,0,0,1-.053.69,4.23,4.23,0,0,0-.173.679c-.008.033,0,.087-.023.1-.37.189-.258.563-.34.864a2.313,2.313,0,0,1-.653,1.249c-.067.057-.039.214-.081.314s-.143.314-.192.307c-.549-.078-.719.395-.89.7a3.376,3.376,0,0,1-1.173,1.152,2.7,2.7,0,0,1-1.381.683.192.192,0,0,0-.089.049c-.476.361-.483.362-1.011.243a.582.582,0,0,1-.717.3.739.739,0,0,0-.452.042,2.259,2.259,0,0,1-1.891-.04,7.974,7.974,0,0,0-.9-.231c-.442-.135-.872-.315-1.319-.43-.33-.085-.682-.083-1.02-.146a6.76,6.76,0,0,1-2.937-1.112c-.286-.216-.589-.411-.913-.636-.1.034-.188.1-.113.283a1.054,1.054,0,0,1,.106.488c-.08.63-.192,1.255-.292,1.882a2.138,2.138,0,0,1-.937,1.406,1.861,1.861,0,0,0-.477.539,15.687,15.687,0,0,1-.88,1.419,2.093,2.093,0,0,1-1.61,1,3.271,3.271,0,0,0-1.387.417,1.955,1.955,0,0,1-.885.251,1.081,1.081,0,0,0-.623.212,1.434,1.434,0,0,1-1.171.269,9.864,9.864,0,0,1-1.845-.452c-.7-.257-1.445-.381-2.164-.588a6.034,6.034,0,0,1-.906-.368c-.483-.229-.971-.453-1.429-.726-.4-.236-.75-.539-1.126-.809a5.989,5.989,0,0,0-1.37-1A.316.316,0,0,1,36.249,62a2.681,2.681,0,0,0-.915-.806c-.664-.489-1.252-1.079-1.9-1.59-.69-.542-1.219-1.244-1.892-1.8a.364.364,0,0,0-.305-.076c-.078.036-.129.178-.149.282-.065.338-.081.688-.176,1.016a2.8,2.8,0,0,1-.4.614,2.88,2.88,0,0,1-.675,1.879l-.108-.287a6.554,6.554,0,0,1-1.662,2.5c0-.1,0-.192-.006-.288l-.067.014.084.265M15.463,44.858c-.271.424-.506.764-.711,1.122-.141.246-.415.354-.519.665a11.538,11.538,0,0,1-.708,1.494,2.207,2.207,0,0,0-.444,1.384c.01.058-.046.127-.065.192-.057.195-.12.389-.164.587a5.309,5.309,0,0,1-.123.659,12.912,12.912,0,0,0-.627,3.03c-.022.2.077.434.011.612a3.287,3.287,0,0,0-.055,1.687c.148,1.006.291,2.013.462,3.015a9.514,9.514,0,0,0,1.061,2.839,2.471,2.471,0,0,0,.321.641,5.855,5.855,0,0,0,2.738,1.6c.589.137,1.188.235,1.765.411a11.109,11.109,0,0,0,3.49.384,7.783,7.783,0,0,0,4.732-1.9,8.868,8.868,0,0,0,2.925-4.129,7.738,7.738,0,0,0,.557-3.34.777.777,0,0,1,.085-.5,1.1,1.1,0,0,1,.511-.379c.072-.024.24.2.344.328a1.674,1.674,0,0,1,.131.28,5.911,5.911,0,0,0,.546.991,6.381,6.381,0,0,0,1.6,1.586,7.018,7.018,0,0,1,.778.665,12.2,12.2,0,0,0,1.526,1.312,11.268,11.268,0,0,1,1.3,1.093,7.236,7.236,0,0,0,1.336.946c.49.242.938.571,1.405.859.1.063.208.123.315.177a4.489,4.489,0,0,0,1.676.654,1.519,1.519,0,0,1,.427.178,2.668,2.668,0,0,0,.382.156c.618.157,1.24.3,1.859.454a2.647,2.647,0,0,0,1.824-.1,9.928,9.928,0,0,1,1.076-.378c.641-.209,1.29-.393,1.923-.621a2.347,2.347,0,0,0,1.08-.777c.382-.491.781-.969,1.183-1.443a3.776,3.776,0,0,0,.99-2.858,2.811,2.811,0,0,1,.01-.722,1.4,1.4,0,0,0-.171-1.085c-.268-.422-.137-.74.3-.983.26-.143.452-.119.544.152a2.786,2.786,0,0,0,1.366,1.36,8.622,8.622,0,0,0,3.5,1.36c.944.118,1.814.5,2.751.634a5.045,5.045,0,0,0,1.271.114c.769-.087,1.531-.244,2.293-.387a2.954,2.954,0,0,0,.531-.2A6.041,6.041,0,0,0,66.822,57a5.4,5.4,0,0,0,1.216-1.906c.323-.91.622-1.828.927-2.744a1.8,1.8,0,0,0,.059-.305,19.349,19.349,0,0,0-.1-2.89,1.056,1.056,0,0,0-.065-.25q-.161-.621-.32-1.242a7.706,7.706,0,0,1-.206-.843,5.309,5.309,0,0,0-1.061-2.212,5.088,5.088,0,0,0-1.515-1.151,5.875,5.875,0,0,0-2.065-.925,10.783,10.783,0,0,1-1.189-.36.725.725,0,0,1-.266-1.148c.2-.215.4-.431.587-.656.254-.3.487-.623.751-.916.112-.125.324-.169.415-.3a2.6,2.6,0,0,0,.177-.537.553.553,0,0,1,.164-.2c.282-.244.661-.4.758-.814.476-.187.41-.663.549-1.03a1.682,1.682,0,0,1,.179-.473,5.14,5.14,0,0,0,.649-1.09A3.787,3.787,0,0,0,67.03,33a1.249,1.249,0,0,1,.065-.459,5.687,5.687,0,0,0,.268-2.094,3.212,3.212,0,0,0-.637-2.208,4.06,4.06,0,0,0-1.407-1.03q-1.153-.455-2.327-.856a2.745,2.745,0,0,0-.909-.182,12.808,12.808,0,0,0-4.577.763,4.6,4.6,0,0,0-1.755.855,1,1,0,0,1-1.025-.09.85.85,0,0,1-.044-1.012c.259-.406.534-.8.764-1.226a2.825,2.825,0,0,0,.324-.867,15.754,15.754,0,0,0,.255-2.15,12.628,12.628,0,0,0-.138-2.315A6.816,6.816,0,0,0,54.4,17.27a.872.872,0,0,0-.47-.3,2.951,2.951,0,0,0-1.414-.188c-.156-.115-.26-.254-.385-.274a13.285,13.285,0,0,0-1.612-.2,3.191,3.191,0,0,0-2.271.7c-.366.309-.693.666-1.043,1a14.822,14.822,0,0,0-1.93,2.289c-.276.392-.476.842-.777,1.211a2.187,2.187,0,0,0-.5,1.154,1.158,1.158,0,0,1-.143.438.451.451,0,0,1-.273.192.956.956,0,0,1-.963-.516,9.1,9.1,0,0,1-.619-2.45,6.935,6.935,0,0,0-.553-1.991c-.209-.454-.4-.917-.6-1.375a4.872,4.872,0,0,0-1.313-1.823A2.816,2.816,0,0,0,38.16,14.4c-.49-.066-.993-.032-1.487-.081a3.385,3.385,0,0,0-1.833.4,2.245,2.245,0,0,0-.763.593c-.409.484-.773,1.011-1.222,1.452a4.226,4.226,0,0,0-1.009,1.384,14.424,14.424,0,0,0-.784,1.775c-.11.41-.791.611-1.037.275-.207-.282-.607-.561-.324-1.037.052-.088-.012-.266-.06-.388-.176-.449-.375-.89-.55-1.339a2.019,2.019,0,0,0-.993-1.152,10.17,10.17,0,0,0-1.65-.6c-.511-.14-1.058-.152-1.57-.29a7.434,7.434,0,0,0-2.414-.106,11.755,11.755,0,0,0-2.473.544,3.03,3.03,0,0,0-1.914,1.7,4.856,4.856,0,0,0-.15,3.253,3.377,3.377,0,0,0,.522,1.115,12.216,12.216,0,0,0,1.018,1.237c.481.541.975,1.07,1.474,1.6a2.11,2.11,0,0,1,.507,1.058c.017.08-.038.241-.095.259a.915.915,0,0,1-.773.057,2.068,2.068,0,0,0-.906-.275,12.049,12.049,0,0,0-2.418.049,15.637,15.637,0,0,0-1.852.374c-.435.15-.91.179-1.356.3-.558.155-1.094.4-1.658.515a2.992,2.992,0,0,0-1.272.368,2.785,2.785,0,0,1-1.031.255,5.129,5.129,0,0,0-1.654.576,10.441,10.441,0,0,0-1.317.786,7.944,7.944,0,0,0-1.573,1.33c-.291.406-.606.8-.878,1.213a5.393,5.393,0,0,0-.585,1.076,6.1,6.1,0,0,0-.31,2.348,20.8,20.8,0,0,0,.292,2.257,1.2,1.2,0,0,0,.321.8.329.329,0,0,1,.073.188,18.771,18.771,0,0,0,.839,2.377.689.689,0,0,0,.1.181c.3.442.632.865.9,1.326A3.885,3.885,0,0,0,8.1,43.719a7.334,7.334,0,0,0,4.842.576c.6-.141,1.2-.278,1.876-.433l.64,1" transform="translate(-1.665 -12.314)" fill="#fff"/>
  <path id="Path_1035" data-name="Path 1035" d="M19.494,65.593a7.241,7.241,0,0,1-1.748-.226c-.5-.125-1.012-.219-1.551-.319-.368-.068-.736-.137-1.1-.215a6.633,6.633,0,0,1-1.067-.343,8.326,8.326,0,0,1-2.275-1.314,2.4,2.4,0,0,1-.517-.657,1.6,1.6,0,0,0-.155-.234,7.846,7.846,0,0,1-1.453-2.407l-.02-.043a12.934,12.934,0,0,1-.674-2.155c-.065-.263-.13-.524-.2-.783l-.014-.052a10.189,10.189,0,0,1-.29-1.257,8.933,8.933,0,0,1-.08-1.36V53.99c0-.6,0-1.23.065-1.859l.02-.2a16.927,16.927,0,0,1,.439-2.8c.08-.3.144-.6.211-.924.054-.258.108-.515.17-.771.051-.209.116-.4.177-.584.042-.125.084-.249.119-.376a6.618,6.618,0,0,1,.673-1.5,5.944,5.944,0,0,1-1.836-.2c-.266-.072-.535-.135-.8-.2-.164-.039-.327-.077-.489-.118a4.6,4.6,0,0,1-1.93-1.029,1.681,1.681,0,0,0-.175-.118c-.056-.035-.112-.07-.167-.107a7.159,7.159,0,0,1-1.742-1.8,13.267,13.267,0,0,1-1.06-1.893c-.13-.266-.26-.532-.4-.792-.034-.065-.074-.128-.112-.191a3.577,3.577,0,0,1-.242-.438l-.074-.166C1,37.495.8,37.053.646,36.586s-.3-.966-.426-1.435q-.068-.245-.136-.489A1.905,1.905,0,0,1,0,34.129c0-.376.006-.75.011-1.125l.009-.78A5.888,5.888,0,0,1,1.1,28.894l.177-.254c.13-.186.259-.372.382-.563a7.6,7.6,0,0,1,1.915-1.921c.2-.154.4-.324.609-.5.188-.16.375-.321.569-.474a3.41,3.41,0,0,1,.7-.4l.217-.1a9.257,9.257,0,0,1,1-.425c.541-.181,1.084-.317,1.608-.447.2-.049.4-.114.609-.183a5.459,5.459,0,0,1,1.757-.347,1.709,1.709,0,0,0,.334-.112A4.107,4.107,0,0,1,11.461,23l.556-.148c.841-.225,1.71-.457,2.58-.653a11.664,11.664,0,0,1,1.328-.225,7.343,7.343,0,0,1-1.285-2.121c-.007-.013-.02-.033-.032-.054a1.824,1.824,0,0,1-.17-.352c-.11-.322-.2-.651-.28-.93a1.75,1.75,0,0,1-.053-.3c0-.018,0-.037-.007-.055a4.145,4.145,0,0,1,.731-3.763,6.519,6.519,0,0,1,1.635-1.619,5.044,5.044,0,0,1,1.856-.793c.175-.038.35-.082.525-.126a9.645,9.645,0,0,1,1.449-.282,11.019,11.019,0,0,1,3.836.173,1.216,1.216,0,0,0,.123.029,6.13,6.13,0,0,1,2.26.578c.189.076.377.153.568.222A3.176,3.176,0,0,1,28.9,14.4c.12-.151.241-.3.366-.45q.142-.167.281-.337a7.847,7.847,0,0,1,2.088-1.958,1.361,1.361,0,0,1,.716-.529,8.766,8.766,0,0,1,2.427-.472l.262,0c.314,0,.628-.011.941,0a5.655,5.655,0,0,1,3.3,1.325,4.132,4.132,0,0,1,1.008,1.257l.043.073a25.669,25.669,0,0,1,1.705,3.635c.135-.214.271-.427.406-.64l.192-.3a1.089,1.089,0,0,1,.426-.411,1.818,1.818,0,0,0,.5-.509,4.41,4.41,0,0,1,.561-.626,7.246,7.246,0,0,1,1.954-1.342,8.881,8.881,0,0,1,1.927-.515l.331-.062a2.951,2.951,0,0,1,1.36.136c.123.034.247.068.368.091.149.028.3.062.444.1.091.021.183.042.275.061.223.047.447.091.67.135.525.1,1.069.208,1.608.361a2.677,2.677,0,0,1,1.364,1.072l.117.148a8.174,8.174,0,0,1,1.264,2.53c.047.133.095.265.143.4a3.179,3.179,0,0,1,.153.7l.011.081q.149,1.073.286,2.147a2.74,2.74,0,0,1,0,.6.947.947,0,0,0,0,.28,1.4,1.4,0,0,1,0,1,1.092,1.092,0,0,0-.035.129c-.005.064-.01.135-.016.207s-.012.158-.019.242c.178-.037.354-.069.528-.1.2-.035.394-.071.588-.114a14.435,14.435,0,0,1,1.426-.221c.27-.032.539-.065.807-.107a5.641,5.641,0,0,1,2.78.413l.393.132a13.8,13.8,0,0,1,1.635.624,7.048,7.048,0,0,1,1.153.743c.111.082.222.164.333.243a3.474,3.474,0,0,1,1.231,1.8,6.36,6.36,0,0,1,.315,3.251,8.338,8.338,0,0,1-.681,4c0,.017,0,.035-.006.052a1.934,1.934,0,0,1-.053.3c-.028.1-.064.206-.1.308-.02.056-.042.111-.057.168l-.02.074a1.591,1.591,0,0,0-.063.279,1.356,1.356,0,0,1-.686,1.212l-.027.031a1.325,1.325,0,0,1-.23.477l-.022.033-.283.473c-.236.4-.48.806-.739,1.206l-.047.073a2.142,2.142,0,0,1-.847.866,16.447,16.447,0,0,1,2.357,1.285,4.179,4.179,0,0,1,1.2,1.308c.047.07.093.139.14.208A8.135,8.135,0,0,1,68.4,44.53l.011.041c.069.248.143.5.217.742.094.317.188.633.274.952a6.389,6.389,0,0,1,.175.931c.023.2.049.393.075.589a15.6,15.6,0,0,1,.168,1.911,3.249,3.249,0,0,1-.395,1.707,1.681,1.681,0,0,1-.148,1.065,1.831,1.831,0,0,0-.076.3c-.014.066-.027.132-.042.2a.875.875,0,0,1-.312.588c0,.006,0,.011,0,.017a2.214,2.214,0,0,1-.065.423,3.386,3.386,0,0,1-.707,1.461,1.091,1.091,0,0,1-.066.21c-.1.234-.349.834-.973.814-.025.044-.054.1-.076.14s-.048.091-.072.134a4.153,4.153,0,0,1-1.435,1.437c-.075.05-.149.1-.222.157a3.066,3.066,0,0,1-1.34.643,1.455,1.455,0,0,1-1.084.381,1.385,1.385,0,0,1-1.173.229,3.1,3.1,0,0,1-2.527-.056,2,2,0,0,0-.354-.09,4.379,4.379,0,0,1-.449-.106c-.194-.058-.386-.127-.578-.194-.246-.086-.479-.168-.706-.227a3.316,3.316,0,0,0-.458-.067c-.17-.017-.34-.036-.507-.067a8.117,8.117,0,0,1-2.967-1.044c-.038.252-.079.5-.12.746l-.084.514a2.94,2.94,0,0,1-1.264,1.945,1.037,1.037,0,0,0-.255.293l-.175.3a12.105,12.105,0,0,1-.755,1.194,2.961,2.961,0,0,1-2.262,1.34,2.563,2.563,0,0,0-1.029.328,2.769,2.769,0,0,1-1.255.34.287.287,0,0,0-.113.034,2.259,2.259,0,0,1-1.82.436,10.848,10.848,0,0,1-2-.492,11,11,0,0,0-1.238-.347c-.29-.07-.581-.14-.868-.223a6.619,6.619,0,0,1-1.034-.416l-.164-.077c-.439-.208-.894-.423-1.334-.686a8.751,8.751,0,0,1-.836-.587c-.116-.088-.232-.176-.35-.262a6.368,6.368,0,0,1-.508-.418,2.3,2.3,0,0,0-.66-.47,1.134,1.134,0,0,1-.613-.509,1.255,1.255,0,0,0-.409-.346c-.089-.06-.18-.121-.267-.186-.4-.293-.763-.614-1.116-.924-.275-.241-.535-.469-.805-.682a10.64,10.64,0,0,1-1.082-1.017l-.092-.1c-.009.037-.019.074-.03.111a1.9,1.9,0,0,1-.353.638,4.018,4.018,0,0,1-.827,2.087l-.9,1.358-.035-.093c-.182.246-.375.474-.572.691l.047.147-.466.3L25.6,64.094l-.006-.35c-.432.286-.879.53-1.318.77-.4.218-.777.425-1.134.656l-.131.085-.154.032c-.121.025-.242.052-.362.079a5.593,5.593,0,0,1-1.936.193l-.038,0a1.878,1.878,0,0,0-.211-.018,5.948,5.948,0,0,1-.819.055M12.85,60.548A4.953,4.953,0,0,0,15.164,61.9c.191.044.382.084.574.125.406.085.826.173,1.245.3a10.512,10.512,0,0,0,3.23.348,6.918,6.918,0,0,0,4.227-1.718A8.047,8.047,0,0,0,27.1,57.211a6.977,6.977,0,0,0,.518-2.983,1.584,1.584,0,0,1,.24-1.08,1.914,1.914,0,0,1,.923-.68,1.125,1.125,0,0,1,1.218.55l.035.043a1.335,1.335,0,0,1,.218.4l.013.034c.048.089.1.2.156.314a2.82,2.82,0,0,0,.291.521l.1.118a5.272,5.272,0,0,0,1.289,1.278,3.648,3.648,0,0,1,.645.522c.077.073.153.147.234.214.217.179.408.365.592.545a4.548,4.548,0,0,0,.825.692,5.522,5.522,0,0,1,.985.79c.144.136.281.265.417.376l.117.1a5.856,5.856,0,0,0,1.062.749,10.315,10.315,0,0,1,1.054.628c.14.091.279.183.42.27.083.052.169.1.256.144s.2.1.293.154a2.886,2.886,0,0,0,1.067.412,1.525,1.525,0,0,1,.619.2c.024.013.048.027.073.037.044.019.09.04.137.061a.911.911,0,0,0,.124.054c.312.078.626.155.941.23s.61.147.915.223a1.811,1.811,0,0,0,1.272-.044,7.646,7.646,0,0,1,.924-.336l.241-.077c.232-.075.465-.148.7-.22.417-.13.812-.252,1.2-.393a1.506,1.506,0,0,0,.7-.5c.4-.519.819-1.014,1.207-1.472a2.935,2.935,0,0,0,.8-2.246,3.582,3.582,0,0,1,.02-.941.584.584,0,0,0-.054-.489,1.472,1.472,0,0,1-.229-1.181,1.577,1.577,0,0,1,.835-.982,1.231,1.231,0,0,1,1.07-.117,1.147,1.147,0,0,1,.666.731c.114.335.421.546.912.855l.108.068A7.754,7.754,0,0,0,56.4,56.021a10.45,10.45,0,0,1,1.549.348,9.964,9.964,0,0,0,1.218.288c.092.013.183.028.275.043a3.128,3.128,0,0,0,.783.067c.614-.07,1.222-.186,1.865-.308l.368-.07a1.5,1.5,0,0,0,.2-.08c.057-.025.113-.05.17-.073A4.355,4.355,0,0,0,64.28,55.05c.09-.1.181-.195.272-.291a4.537,4.537,0,0,0,1.035-1.611c.249-.7.489-1.423.721-2.122l.2-.607c.007-.029.011-.065.016-.1l.009-.064A6.345,6.345,0,0,0,66.5,48.7c-.036-.362-.075-.735-.079-1.122-.017-.051-.029-.09-.039-.129l-.044-.171q-.139-.537-.276-1.074c-.02-.076-.041-.151-.062-.228a5.286,5.286,0,0,1-.162-.707,4.38,4.38,0,0,0-.855-1.754l-.071-.105a2.433,2.433,0,0,0-.787-.61c-.174-.1-.348-.208-.513-.322a5,5,0,0,0-1.774-.8,11.773,11.773,0,0,1-1.283-.387A1.509,1.509,0,0,1,59.6,40.22a1.546,1.546,0,0,1,.355-1.429c.191-.206.381-.412.56-.626.1-.114.189-.231.281-.348.154-.194.313-.394.491-.591a1.372,1.372,0,0,1,.34-.268,2.386,2.386,0,0,1,.091-.309,1.331,1.331,0,0,1,.4-.529c.091-.079.189-.151.288-.222a1.443,1.443,0,0,0,.212-.17l.1-.427.324-.115c.011-.042.021-.093.029-.133a2.879,2.879,0,0,1,.12-.443c.011-.028.017-.059.025-.089A1.562,1.562,0,0,1,63.5,33.9a4.307,4.307,0,0,0,.54-.919l.079-.165a2.776,2.776,0,0,0,.415-1.408,2.035,2.035,0,0,1,.1-.775,4.816,4.816,0,0,0,.237-1.787c-.01-.118-.018-.237-.025-.356a1.933,1.933,0,0,0-.38-1.343,3.317,3.317,0,0,0-1.113-.833c-.735-.29-1.506-.574-2.291-.843a2.129,2.129,0,0,0-.614-.137h-.011a12.211,12.211,0,0,0-4.283.7c-.16.063-.324.12-.488.176a2.482,2.482,0,0,0-.982.491,1.341,1.341,0,0,1-.984.353,1.806,1.806,0,0,1-1.238-.455,1.675,1.675,0,0,1-.142-2.035l.2-.313c.193-.3.376-.577.532-.864a1.993,1.993,0,0,0,.233-.6,14.834,14.834,0,0,0,.245-2.035,11.791,11.791,0,0,0-.127-2.161,5.893,5.893,0,0,0-1.269-2.406l-.046-.063c-.124-.036-.231-.066-.339-.1a1.72,1.72,0,0,0-.672-.108l-.391.107-.326-.241c-.065-.048-.124-.1-.179-.147a11.4,11.4,0,0,0-1.356-.164,2.353,2.353,0,0,0-1.7.5c-.207.175-.4.371-.614.58-.131.13-.262.26-.4.386a13.9,13.9,0,0,0-1.82,2.162c-.1.139-.191.3-.288.464a6.027,6.027,0,0,1-.524.794,1.366,1.366,0,0,0-.316.73,1.993,1.993,0,0,1-.253.761,1.272,1.272,0,0,1-.838.587,1.793,1.793,0,0,1-1.88-1,9.989,9.989,0,0,1-.681-2.672,6.073,6.073,0,0,0-.484-1.753c-.132-.285-.254-.576-.377-.865-.074-.175-.149-.35-.225-.523a4.015,4.015,0,0,0-1.083-1.518,2.093,2.093,0,0,0-.96-.548,7.01,7.01,0,0,0-.718-.041c-.238-.006-.484-.011-.74-.037a2.55,2.55,0,0,0-1.391.319,1.413,1.413,0,0,0-.485.378c-.133.158-.26.319-.388.481a10.6,10.6,0,0,1-.887,1.028A3.366,3.366,0,0,0,30.95,16.8c-.1.248-.221.479-.333.7a5.323,5.323,0,0,0-.415.968,1.487,1.487,0,0,1-1.184,1.036,1.321,1.321,0,0,1-1.331-.484c-.027-.036-.058-.071-.09-.107a1.537,1.537,0,0,1-.418-1.557c-.079-.2-.163-.4-.246-.6-.1-.229-.194-.459-.284-.692a1.2,1.2,0,0,0-.572-.7,9.316,9.316,0,0,0-1.514-.553,5.8,5.8,0,0,0-.69-.126A7.219,7.219,0,0,1,23,14.525a6.415,6.415,0,0,0-2.054-.085l-.092.006a9.765,9.765,0,0,0-2.058.445l-.236.068a2.185,2.185,0,0,0-1.391,1.262,4.1,4.1,0,0,0-.088,2.711,2.562,2.562,0,0,0,.4.829,10.26,10.26,0,0,0,.854,1.042l.1.109c.517.58,1.05,1.147,1.456,1.576a2.887,2.887,0,0,1,.718,1.459,1.088,1.088,0,0,1-.651,1.225l-.082.028a1.586,1.586,0,0,1-1.326-.018,1.382,1.382,0,0,0-.512-.187h0c-.294,0-.579-.008-.853-.021a5.449,5.449,0,0,0-1.4.05c-.239.052-.481.09-.724.127a6.053,6.053,0,0,0-1.034.22,5.791,5.791,0,0,1-.884.209c-.186.033-.363.065-.521.108-.207.058-.417.131-.639.208a8.686,8.686,0,0,1-1.068.32c-.128.027-.256.047-.383.066a1.275,1.275,0,0,0-.577.165,2.309,2.309,0,0,1-1.093.354c-.086.012-.173.022-.255.039a4.294,4.294,0,0,0-1.391.473c-.164.1-.333.189-.5.279a4.354,4.354,0,0,0-.712.435c-.192.159-.387.3-.575.432a3.519,3.519,0,0,0-.853.743c-.106.147-.214.291-.322.436-.192.256-.372.5-.534.746a4.712,4.712,0,0,0-.5.9,5.236,5.236,0,0,0-.261,2.027,14.475,14.475,0,0,0,.208,1.692c.025.158.051.316.075.474l.009.057a1.424,1.424,0,0,0,.054.264,1.069,1.069,0,0,1,.331.665A5.422,5.422,0,0,0,4.032,37.7a9.955,9.955,0,0,1,.38.985l0,.006c.094.14.192.276.288.412.218.306.443.622.643.97a3.039,3.039,0,0,0,1.442,1.225,6.454,6.454,0,0,0,4.3.522c.418-.1.837-.193,1.278-.3l1.172-.27,1.247,1.939-.288.451c-.086.134-.168.26-.247.381-.169.258-.314.481-.444.707a1.943,1.943,0,0,1-.373.451c-.028.028-.066.064-.084.084a8.461,8.461,0,0,1-.565,1.231c-.061.117-.123.235-.183.352-.046.092-.1.182-.145.272-.171.31-.244.461-.221.6a1,1,0,0,1-.1.61l-.028.1c-.039.131-.079.261-.108.393-.014.061-.021.125-.029.188a2.6,2.6,0,0,1-.125.575,12.2,12.2,0,0,0-.582,2.836.254.254,0,0,1,.013.063,1.468,1.468,0,0,1-.05.75,2.549,2.549,0,0,0-.011,1.274l.054.368c.126.864.257,1.758.406,2.628a8.755,8.755,0,0,0,.975,2.588,2.863,2.863,0,0,1,.146.335c.016.042.037.1.051.128m48.309-.958h0m2.377-.706h0M29.283,55.213l-.007.073.046-.016-.04-.057M66.66,54.82h0M12.152,48.282l0,.008ZM54.177,24.765q-.131.205-.261.4L53.9,25.2a3.568,3.568,0,0,1,.679-.359Zm-34.75-1.178-.007,0Zm35.588-.206,0,0,0,0m-13.57-3.407c.044.158.094.317.151.475a2.961,2.961,0,0,1,.411-.895ZM28.722,16.722l.031.077a1.89,1.89,0,0,1,.127.455c.079-.174.164-.341.247-.506l.1-.206a1.264,1.264,0,0,1-.25.092ZM52.064,16.1h0ZM31.706,11.618h0" transform="translate(0 -10.648)" fill="#fff"/>
  <path id="Path_1036" data-name="Path 1036" d="M91.856,68.222l-.975-.487a1.281,1.281,0,0,1-.012-.3A11.186,11.186,0,0,1,91.9,63.768c.375-.594.844-1.128,1.272-1.688.02-.026.068-.034.082-.062.385-.785,1.133-.736,1.821-.757a8.736,8.736,0,0,1,1.479.131,4.9,4.9,0,0,1,2.248.835,1.961,1.961,0,0,1,.96,1.605c.014.884.108,1.766.165,2.649a.229.229,0,0,1-.039.146.82.82,0,0,0-.183.721c.009.044-.024.1-.044.147a13.658,13.658,0,0,1-1.824,3.279,3.9,3.9,0,0,0-.238.454,3.065,3.065,0,0,1-.364.552,2.3,2.3,0,0,0-.52.873c-.16.481-.382.941-.555,1.418a2.833,2.833,0,0,0-.084.556c-.054.375-.13.749-.157,1.126a1.257,1.257,0,0,0,.806,1.217,2.3,2.3,0,0,0,1.2.22.926.926,0,0,1,.888.417c.2.31.214.551-.087.772a4.3,4.3,0,0,1-.919.438c-.065.027-.168-.018-.248-.046-.337-.118-.679-.227-1.005-.37a2.84,2.84,0,0,1-.854-.468,4.77,4.77,0,0,1-1.228-1.511,2.683,2.683,0,0,1-.151-1.164,6.9,6.9,0,0,1,.725-2.626c.331-.72.726-1.412,1.115-2.1.235-.418.535-.8.769-1.22.394-.708.761-1.43,1.131-2.151a1.309,1.309,0,0,0,.119-.4,7.991,7.991,0,0,0,.095-2.724,1.515,1.515,0,0,0-1.624-1.453c-.447-.021-.9.047-1.344.026a2.077,2.077,0,0,0-1.578.824,3.913,3.913,0,0,0-1.1,2.284c-.053.342-.122.681-.174,1.023a2.859,2.859,0,0,1-.6,1.481" transform="translate(-60.531 -44.364)" fill="#fff"/>
  <path id="Path_1037" data-name="Path 1037" d="M96.1,77.995a1.305,1.305,0,0,1-.458-.093l-.251-.087c-.272-.093-.553-.19-.836-.314l-.134-.058a3.023,3.023,0,0,1-.966-.576l-.16-.154a4.865,4.865,0,0,1-1.258-1.635,3.475,3.475,0,0,1-.213-1.516,7.784,7.784,0,0,1,.8-2.943c.326-.709.708-1.387,1.078-2.044l.068-.121c.132-.234.275-.448.413-.656s.252-.378.354-.56c.349-.628.686-1.284,1.011-1.919l.106-.207a.484.484,0,0,0,.037-.141,7.327,7.327,0,0,0,.1-2.444c-.122-.648-.289-.747-.843-.773-.182-.009-.38,0-.59.013a7.265,7.265,0,0,1-.755.013c-.308-.02-.517.158-.954.586a3.075,3.075,0,0,0-.859,1.817c-.027.171-.057.34-.087.51s-.06.339-.086.51a3.667,3.667,0,0,1-.725,1.81l-.407.625L88.406,66.6l-.024-.487c0-.027,0-.051-.006-.072a1.3,1.3,0,0,1,.015-.455c.073-.314.129-.636.188-.977a7.7,7.7,0,0,1,.947-2.949,14.072,14.072,0,0,1,.928-1.258c.13-.163.26-.325.386-.491a.976.976,0,0,1,.1-.106,2.457,2.457,0,0,1,2.291-1.036l.154,0a9.131,9.131,0,0,1,1.542.127L95,58.9a5.709,5.709,0,0,1,2.622.987,2.785,2.785,0,0,1,1.3,2.267c.009.573.053,1.142.1,1.744.022.288.045.577.063.865a1.052,1.052,0,0,1-.223.722.189.189,0,0,0-.022.032.96.96,0,0,1-.082.63,14.658,14.658,0,0,1-1.942,3.48c-.009.017-.022.053-.038.087a2.6,2.6,0,0,1-.137.274l-.06.1a3.036,3.036,0,0,1-.413.595,1.459,1.459,0,0,0-.336.565c-.1.3-.214.575-.326.845-.081.2-.164.394-.236.594a1.649,1.649,0,0,0-.019.167c-.007.074-.014.15-.024.223-.018.123-.037.246-.057.369-.04.245-.077.477-.093.7-.007.1-.015.214.374.427a1.509,1.509,0,0,0,.781.118,1.744,1.744,0,0,1,1.615.8,1.313,1.313,0,0,1-.3,1.894,3.882,3.882,0,0,1-.915.465l-.179.072a.947.947,0,0,1-.364.072M90.836,59.984l0,0,0,0" transform="translate(-58.865 -42.699)" fill="#fff"/>
  <path id="Path_1038" data-name="Path 1038" d="M109.544,127.6a3.322,3.322,0,0,1-.407.425,2.418,2.418,0,0,1-1.816.332.922.922,0,0,1-.718-.974.477.477,0,0,0-.031-.284.611.611,0,0,1,.041-.724,6.444,6.444,0,0,1,.4-.6.766.766,0,0,1,1.107-.246c.212.112.422.229.634.342a1.512,1.512,0,0,1,.794,1.725m-1.519-.668.046.161c.056-.023.137-.031.16-.073s-.018-.111-.031-.169l-.176.081m-.173-.345.037.105a.515.515,0,0,0,.114-.053.131.131,0,0,0-.027-.08.54.54,0,0,0-.125.028" transform="translate(-70.927 -87.092)" fill="#fff"/>
  <path id="Path_1039" data-name="Path 1039" d="M106.218,127.564a5.457,5.457,0,0,1-.662-.044,1.746,1.746,0,0,1-1.452-1.814,1.439,1.439,0,0,1,.126-1.421,7.553,7.553,0,0,1,.447-.671,1.587,1.587,0,0,1,2.166-.484c.114.06.226.122.339.183l.3.16a2.35,2.35,0,0,1,1.224,2.609l-.044.243-.17.181c-.033.036-.065.073-.1.111a2.527,2.527,0,0,1-.422.414,2.864,2.864,0,0,1-1.751.534m-2-1.657,0,.005,0-.005m1.52-.632c.007.027.014.054.018.081l.512-.113-.072-.277-.121-.282a.787.787,0,0,0-.237.258.778.778,0,0,0-.1.333" transform="translate(-69.265 -85.425)" fill="#fff"/>
</svg>
