<svg id="Group_2162" data-name="Group 2162" xmlns="http://www.w3.org/2000/svg" width="56.18" height="54.712" viewBox="0 0 56.18 54.712">
  <path id="Path_1022" data-name="Path 1022" d="M490.546,30.244c.039.544.07,1.089.117,1.633a12.471,12.471,0,0,1-.049,3.079,8.363,8.363,0,0,0-.137,1.945,7.74,7.74,0,0,1-.045,1.131c-.052.682-.119,1.363-.175,2.045a16.171,16.171,0,0,1-.408,2.527,13.211,13.211,0,0,0-.235,1.617c-.28,2.415-.53,4.833-.842,7.244a14,14,0,0,1-.572,2.6,8.68,8.68,0,0,1-3.26,4.617,2.183,2.183,0,0,1-.837.354,11.961,11.961,0,0,0-2.825.932,4.745,4.745,0,0,1-1.966.485,12.49,12.49,0,0,0-2.125.306c-.918.161-1.84-.013-2.76.055a4.7,4.7,0,0,1-1.729.055c-.11-.032-.257.073-.389.106a1.613,1.613,0,0,1-.495.1c-.816-.072-1.633-.144-2.443-.26a18.312,18.312,0,0,0-3.776-.332,3.188,3.188,0,0,1-1.02-.108,16.006,16.006,0,0,0-4.067-.367,3.1,3.1,0,0,1-.41-.017,17.854,17.854,0,0,0-4.976-.117,3.664,3.664,0,0,1-.512.031,36.75,36.75,0,0,0-3.9.173,13.714,13.714,0,0,1-2.972.058,2.028,2.028,0,0,0-.616.014,20.628,20.628,0,0,1-3.485-.007,1.315,1.315,0,0,1-1.072-.5c-.551-.651-1.116-1.291-1.671-1.939a1.011,1.011,0,0,1-.161-.263c-.722-1.732-1.8-3.316-2.185-5.189a.532.532,0,0,0-.059-.2,10.6,10.6,0,0,1-.743-1.786,10.828,10.828,0,0,1-.822-3.169c-.147-1.052-.255-2.11-.387-3.164-.025-.2-.085-.4-.128-.6a2.145,2.145,0,0,1-.118-.6,29.693,29.693,0,0,1,.035-3.586,5.183,5.183,0,0,0,.015-1.436,21.416,21.416,0,0,1,.2-3.793c.093-.918.072-1.848.107-2.772.03-.786.066-1.572.1-2.358.035-.823.108-1.646.092-2.467A17.765,17.765,0,0,1,437,23.861c.105-.885.155-1.777.234-2.665a3.516,3.516,0,0,1,.108-.811,34.667,34.667,0,0,0,.9-4.11,5.754,5.754,0,0,1,1.631-3.246c.528-.486,1.058-.973,1.619-1.419a.871.871,0,0,0,.439-.756,1,1,0,0,1,.869-1.1,11.652,11.652,0,0,1,1.891-.469,14.777,14.777,0,0,0,2.72-.536,9.83,9.83,0,0,1,3.568-.229c.615.044,1.231.088,1.847.107,2.4.073,4.8-.018,7.2-.071.684-.015,1.371-.04,2.054-.009a36.67,36.67,0,0,0,4.307-.25,1.752,1.752,0,0,1,.51-.011,3.874,3.874,0,0,0,1.426-.082,11.828,11.828,0,0,1,1.838-.169c1.507.04,3.014,0,4.522.142a31.328,31.328,0,0,0,3.6.078,20.154,20.154,0,0,1,2.757.281,1.628,1.628,0,0,1,.822.38c.8.692,1.6,1.392,2.346,2.145a15.226,15.226,0,0,1,4.046,7.273,2.583,2.583,0,0,0,.081.3,29.889,29.889,0,0,1,1.312,5.155,14.983,14.983,0,0,0,.5,2.182,9.107,9.107,0,0,1,.4,2.634c.021.545.066,1.09.1,1.634l-.11.008m-46.507-19.3a2.46,2.46,0,0,1-1.629,1.782,1.458,1.458,0,0,0-.181.1,4.579,4.579,0,0,0-2.055,2.466c-.188.547-.222,1.146-.413,1.692A30.969,30.969,0,0,0,438.9,21c-.11.531-.039,1.1-.146,1.632a22.776,22.776,0,0,0-.359,3.475c-.129,2.742-.273,5.483-.389,8.226-.056,1.337.01,2.682-.115,4.011a21.355,21.355,0,0,0,.068,3.9,48.614,48.614,0,0,0,.858,5.689,22.988,22.988,0,0,0,4.223,9.606,2.186,2.186,0,0,0,1.319.906,9.691,9.691,0,0,0,1.724.253c3.157.031,6.31-.065,9.457-.339a12.292,12.292,0,0,1,1.644-.044c1.884.091,3.767.205,5.649.318.444.027.887.081,1.33.128.407.043.813.109,1.221.136,1.163.075,2.33.1,3.488.212.988.1,1.965.305,2.949.451a4.238,4.238,0,0,0,.919.063c.751-.055,1.5-.125,2.25-.23a21.5,21.5,0,0,1,3.271-.318,4.129,4.129,0,0,0,.819-.072,26.255,26.255,0,0,0,4.745-1.341,3.342,3.342,0,0,0,1.532-1.164c.141-.195.292-.383.421-.585a8.5,8.5,0,0,0,1.528-3.661c.261-2.349.61-4.689.865-7.038.285-2.622.741-5.222.878-7.864.117-2.262.281-4.521.188-6.787a17.13,17.13,0,0,0-.336-2.96c-.269-1.237-.448-2.494-.7-3.735-.206-1.006-.428-2.013-.713-3-.333-1.151-.707-2.294-1.129-3.415a14.248,14.248,0,0,0-2.237-4.146,20.2,20.2,0,0,0-2.508-2.568,3.666,3.666,0,0,0-2.222-.922c-1.2-.08-2.388-.214-3.584-.3a3.99,3.99,0,0,0-1.225.028,5.116,5.116,0,0,1-1.634.058c-.409-.03-.819-.06-1.228-.067-1.056-.017-2.108.028-3.164.1-1.362.092-2.737.106-4.1.1-2.774-.006-5.537.188-8.305.274a32.765,32.765,0,0,1-5.038-.089,7.811,7.811,0,0,0-2.356.078c-1.281.233-2.567.44-3.848.673a7.786,7.786,0,0,0-.866.271" transform="translate(-435.389 -7.2)" fill="#fff"/>
  <path id="Path_1023" data-name="Path 1023" d="M470.191,60.247c-.037,0-.076,0-.116-.005-.819-.072-1.659-.147-2.49-.266l-.552-.081a14.465,14.465,0,0,0-3.052-.244,4,4,0,0,1-1.292-.136,13.954,13.954,0,0,0-3.55-.334l-.38,0a3.049,3.049,0,0,1-.448-.026,17.144,17.144,0,0,0-4.762-.113,4.233,4.233,0,0,1-.632.036,31.736,31.736,0,0,0-3.46.144l-.356.027-.455.036a11.907,11.907,0,0,1-2.7.015,1.237,1.237,0,0,0-.36.01,10.89,10.89,0,0,1-2.5.05c-.39-.023-.758-.045-1.126-.045a2.153,2.153,0,0,1-1.708-.8c-.325-.384-.655-.764-.984-1.144q-.343-.395-.683-.79a1.846,1.846,0,0,1-.3-.485c-.234-.562-.506-1.1-.793-1.679a15.007,15.007,0,0,1-1.438-3.658,4.985,4.985,0,0,1-.517-1.2,5.481,5.481,0,0,0-.223-.6,11.629,11.629,0,0,1-.893-3.408c-.092-.658-.169-1.325-.244-1.969-.047-.4-.094-.8-.144-1.206a3.013,3.013,0,0,0-.064-.307c-.018-.075-.036-.15-.052-.224-.009-.043-.023-.086-.035-.131a1.907,1.907,0,0,1-.1-.722,9.141,9.141,0,0,0-.022-1.405,8.124,8.124,0,0,1,.072-2.278,4.211,4.211,0,0,0,.005-1.118l-.006-.083a19.053,19.053,0,0,1,.149-3.464l.049-.476c.059-.582.069-1.169.081-1.79.005-.31.011-.619.023-.929.019-.518.042-1.035.065-1.553l.035-.81c.011-.252.025-.5.039-.757.033-.575.063-1.117.053-1.659a18.362,18.362,0,0,1,.174-2.572c.067-.559.112-1.14.155-1.7.024-.313.049-.626.076-.939.005-.057.009-.115.013-.173a3.129,3.129,0,0,1,.136-.833,18.7,18.7,0,0,0,.629-2.731c.077-.428.154-.856.242-1.282a6.629,6.629,0,0,1,1.883-3.689l.026-.024c.523-.481,1.063-.977,1.639-1.434a1.471,1.471,0,0,0,.122-.1,1.818,1.818,0,0,1,1.482-1.9c.151-.042.3-.087.454-.133a8.381,8.381,0,0,1,1.576-.363,13.977,13.977,0,0,0,2.567-.506,10.554,10.554,0,0,1,3.865-.262c.611.044,1.22.087,1.813.105,1.921.058,3.884.01,5.783-.038l1.376-.033.3-.007c.59-.014,1.2-.03,1.813,0a21.608,21.608,0,0,0,2.991-.144c.406-.038.812-.076,1.218-.105l.1-.009a1.9,1.9,0,0,1,.664.018,2.092,2.092,0,0,0,.774-.043c.117-.019.234-.039.353-.054l.306-.042a10.221,10.221,0,0,1,1.661-.134c.459.012.918.017,1.376.021,1.044.011,2.123.022,3.2.124a30.811,30.811,0,0,0,3.5.074,12.2,12.2,0,0,1,2.093.181c.259.037.518.075.778.105a2.47,2.47,0,0,1,1.272.577c.789.681,1.623,1.411,2.394,2.191a16.107,16.107,0,0,1,4.264,7.665l.011.048a1.182,1.182,0,0,0,.04.153,30.64,30.64,0,0,1,1.351,5.3l.015.082a13.8,13.8,0,0,0,.458,1.979,9.921,9.921,0,0,1,.446,2.872c.014.368.04.735.065,1.1l.087,1.344-.105.006c.017.261.036.521.059.78a13.071,13.071,0,0,1-.056,3.284,7.517,7.517,0,0,0-.129,1.752,6.69,6.69,0,0,1-.03,1.063l-.015.192c-.031.407-.067.814-.1,1.221-.024.276-.049.553-.072.829a17.18,17.18,0,0,1-.429,2.657,9.435,9.435,0,0,0-.183,1.211l-.034.3q-.139,1.2-.271,2.394c-.178,1.593-.363,3.241-.571,4.861a14.852,14.852,0,0,1-.607,2.758,9.432,9.432,0,0,1-3.579,5.041,3.025,3.025,0,0,1-1.168.489,11.335,11.335,0,0,0-2.628.872,5.622,5.622,0,0,1-2.3.557h-.005a7.8,7.8,0,0,0-1.447.194c-.177.035-.354.069-.53.1a8.291,8.291,0,0,1-1.773.066,9.6,9.6,0,0,0-1.069,0c-.143.011-.286.032-.429.053a4.006,4.006,0,0,1-1.367.026,1.457,1.457,0,0,1-.187.06l-.093.026a1.91,1.91,0,0,1-.556.1m.607-.238h0Zm-31.422-5.566c.16.33.315.666.458,1.009a.172.172,0,0,0,.025.042c.224.261.45.522.676.782.334.385.668.77,1,1.159a.49.49,0,0,0,.435.208c.312,0,.622.014.924.03l-.088-.018-.266-.053a3.026,3.026,0,0,1-1.819-1.213,20.544,20.544,0,0,1-1.342-1.947m15.673,1.365c.176,0,.345,0,.511.012,1.838.088,3.7.2,5.509.31l.15.009c.371.022.735.062,1.089.1l.279.03c.157.016.314.036.472.056.249.032.485.062.715.076.418.027.837.047,1.255.067.739.036,1.5.072,2.263.148.661.066,1.313.177,1.945.285.348.059.7.119,1.044.171a3.63,3.63,0,0,0,.735.056c.86-.063,1.558-.135,2.194-.225l.353-.05a20.887,20.887,0,0,1,3.045-.276,3.027,3.027,0,0,0,.651-.057,25.326,25.326,0,0,0,4.6-1.3,2.524,2.524,0,0,0,1.163-.876c.05-.069.1-.138.152-.206.084-.112.169-.225.245-.343a7.625,7.625,0,0,0,1.4-3.3c.127-1.146.277-2.306.422-3.427.153-1.184.311-2.407.442-3.61.1-.925.224-1.858.342-2.761.218-1.656.444-3.37.531-5.056q.028-.535.058-1.07c.1-1.853.206-3.77.13-5.639a16.524,16.524,0,0,0-.317-2.817c-.151-.691-.274-1.391-.394-2.069-.1-.552-.2-1.123-.312-1.677-.192-.938-.41-1.943-.7-2.934-.339-1.173-.712-2.3-1.108-3.354a13.5,13.5,0,0,0-2.1-3.909,19.355,19.355,0,0,0-2.4-2.463,2.842,2.842,0,0,0-1.739-.726c-.665-.044-1.335-.106-1.982-.165-.535-.049-1.072-.1-1.608-.139l-.044,0a3.281,3.281,0,0,0-.92.009,5.878,5.878,0,0,1-1.893.08c-.419-.03-.8-.058-1.181-.064-.908-.017-1.891.016-3.095.1-1.427.1-2.842.111-4.16.106-1.779-.009-3.592.077-5.345.155-.978.044-1.955.087-2.933.118l-.238.007a32.028,32.028,0,0,1-4.927-.1,7.005,7.005,0,0,0-2.105.07c-.643.117-1.287.227-1.931.337s-1.279.219-1.917.335a2.37,2.37,0,0,0-.338.1,3.374,3.374,0,0,1-1.976,1.9c-.025.012-.051.029-.076.044a3.73,3.73,0,0,0-1.7,2.025,5.65,5.65,0,0,0-.174.727,6.82,6.82,0,0,1-.24.968,15.931,15.931,0,0,0-.592,2.606c-.072.427-.147.868-.238,1.306a4.254,4.254,0,0,0-.058.681,5.678,5.678,0,0,1-.088.947,22.268,22.268,0,0,0-.343,3.349q-.069,1.474-.142,2.948c-.086,1.758-.172,3.516-.247,5.275-.022.508-.025,1.034-.028,1.543-.005.819-.01,1.666-.089,2.51a20.627,20.627,0,0,0,.069,3.751,47.969,47.969,0,0,0,.843,5.592,22.133,22.133,0,0,0,4.065,9.266,1.367,1.367,0,0,0,.82.6l.276.055a7.179,7.179,0,0,0,1.3.183c3.34.031,6.406-.077,9.376-.335.448-.039.86-.059,1.246-.059M435.994,44.657c.028.221.057.442.087.661a11.335,11.335,0,0,0,.591,2.556q-.181-.7-.335-1.432-.188-.894-.343-1.786m-.539-3.546c.007.032.024.092.037.137s.034.119.048.177q-.035-.329-.065-.656c0,.113-.01.227-.02.342M488.88,28.579h0ZM441.1,9.009a.316.316,0,0,0-.008.124,1.489,1.489,0,0,1-.244.938,1.414,1.414,0,0,0,.7-.969l.061-.282-.263.075a.543.543,0,0,0-.252.113m38.3-1.276c.045.021.09.043.134.066a.9.9,0,0,0-.134-.066" transform="translate(-433.723 -5.535)" fill="#fff"/>
  <path id="Path_1024" data-name="Path 1024" d="M494.891,46.562a8.434,8.434,0,0,1,3.013,1.747,1.884,1.884,0,0,0,.233.2,6.25,6.25,0,0,1,1.924,2.368,19.3,19.3,0,0,1,1.4,2.741c.084.257.17.515.247.774.106.36.219.719.3,1.084a6.59,6.59,0,0,1,.274,1.4c.011,1.233,0,2.471-.1,3.7a8.26,8.26,0,0,1-.734,2.659c-.318.721-.659,1.434-.959,2.162a12.789,12.789,0,0,1-2.425,3.789,11.2,11.2,0,0,1-3.653,2.608,1.737,1.737,0,0,1-.385.142c-1.108.211-2.214.445-3.329.614a23.612,23.612,0,0,1-5.229.219,5.666,5.666,0,0,1-1.5-.3,9.726,9.726,0,0,1-3.911-2.4c-.8-.849-1.63-1.67-2.377-2.561a12.578,12.578,0,0,1-1.85-2.954,7.029,7.029,0,0,1-.46-1.675,10.68,10.68,0,0,1-.08-1.54,9.682,9.682,0,0,1,.639-3.83,1.933,1.933,0,0,0,.179-.588,15.928,15.928,0,0,1,.738-2.773,2.91,2.91,0,0,1,.27-.55c.249-.526.512-1.047.739-1.582a9.655,9.655,0,0,1,2.154-3.218,6.931,6.931,0,0,1,1.321-.967,28.892,28.892,0,0,1,3.867-1.9,7.482,7.482,0,0,1,1.682-.445c.739-.111,1.469-.29,2.2-.439a2.651,2.651,0,0,1,.6-.117c1.094.043,2.186-.121,3.284,0a1.548,1.548,0,0,1,1.148.578c.272.352.528.715.775,1.053m-.722,1.024c-.121-.161-.207-.268-.284-.38a2.417,2.417,0,0,0-2.277-1.1,24.79,24.79,0,0,0-4.291.437,7.484,7.484,0,0,0-1.566.472c-1.027.471-2.033.989-3.026,1.528a5.551,5.551,0,0,0-1.253.888,10.148,10.148,0,0,0-2.172,3.219,35.38,35.38,0,0,0-1.315,3.457,16.832,16.832,0,0,0-.807,6.287,4.358,4.358,0,0,0,.417,1.679,4.865,4.865,0,0,0,1.248,1.967.506.506,0,0,1,.174.248,5.21,5.21,0,0,0,.952,1.442,11.945,11.945,0,0,0,1.616,1.565,7.327,7.327,0,0,0,6.48,2.122c1.359-.173,2.728-.235,4.086-.46a8.4,8.4,0,0,0,2.611-.852,8.318,8.318,0,0,0,3.16-3.009c.568-.9,1.053-1.846,1.531-2.794a11.854,11.854,0,0,0,1.3-5.445,24.565,24.565,0,0,0-.318-3.056,8.118,8.118,0,0,0-1.012-3.108c-.119-.2-.175-.446-.276-.663a6.163,6.163,0,0,0-1.295-1.956c-.546-.511-1.19-.918-1.783-1.381a9.329,9.329,0,0,1-1.094-.927c-.235-.252-.475-.213-.8-.183" transform="translate(-461.412 -31.75)" fill="#fff"/>
  <path id="Path_1025" data-name="Path 1025" d="M485.413,72q-.842,0-1.67-.06a6.425,6.425,0,0,1-1.724-.351,10.435,10.435,0,0,1-4.236-2.61c-.228-.242-.459-.483-.689-.723-.575-.6-1.169-1.217-1.719-1.874a13.383,13.383,0,0,1-1.973-3.15,7.88,7.88,0,0,1-.52-1.875,8.436,8.436,0,0,1-.087-1.341c0-.107,0-.213,0-.319a10.441,10.441,0,0,1,.7-4.156l.04-.1a1.691,1.691,0,0,0,.082-.228,6.812,6.812,0,0,1,.462-1.955,9.271,9.271,0,0,0,.3-.957,2.068,2.068,0,0,1,.258-.594c.025-.042.051-.085.071-.129l.206-.43c.186-.385.361-.748.519-1.121a10.394,10.394,0,0,1,2.342-3.492,7.691,7.691,0,0,1,1.48-1.087,29.9,29.9,0,0,1,3.978-1.956,8.318,8.318,0,0,1,1.867-.5c.491-.073.977-.179,1.492-.29.222-.048.445-.1.667-.142.047-.01.093-.023.14-.035a2.188,2.188,0,0,1,.662-.1c.428.017.859,0,1.315-.02a13.456,13.456,0,0,1,2.028.023,2.378,2.378,0,0,1,1.717.9c.2.253.384.512.566.764l.08.109a8.955,8.955,0,0,1,3.065,1.839,1.492,1.492,0,0,0,.13.118,7.18,7.18,0,0,1,2.187,2.668c.143.277.3.547.464.834a10.81,10.81,0,0,1,.985,2.029c.094.283.178.539.254.8l.054.181c.091.306.186.622.263.95.026.108.054.216.082.323a5.153,5.153,0,0,1,.215,1.264c.009,1.042.005,2.413-.1,3.772a9.046,9.046,0,0,1-.8,2.929c-.114.258-.231.515-.348.772-.2.45-.416.914-.6,1.371a13.661,13.661,0,0,1-2.582,4.035,12.075,12.075,0,0,1-3.921,2.8,2.474,2.474,0,0,1-.575.2q-.428.082-.854.166c-.817.16-1.662.326-2.508.454a25.109,25.109,0,0,1-3.744.285m4.679-26.724-.121,0a23.7,23.7,0,0,0-4.147.42,6.784,6.784,0,0,0-1.392.414c-.908.416-1.853.894-2.976,1.5a4.684,4.684,0,0,0-1.065.748,9.349,9.349,0,0,0-1.993,2.957,34.318,34.318,0,0,0-1.285,3.374,15.954,15.954,0,0,0-.77,5.979,3.508,3.508,0,0,0,.332,1.366c.077.155.149.312.22.47a2.928,2.928,0,0,0,.78,1.2,1.332,1.332,0,0,1,.477.69,2.133,2.133,0,0,0,.452.7c.129.156.262.317.388.5a4.434,4.434,0,0,0,.85.847c.221.185.45.377.669.6a6.475,6.475,0,0,0,5.781,1.88c.563-.071,1.13-.125,1.679-.176.785-.074,1.6-.15,2.375-.279a7.57,7.57,0,0,0,2.358-.766,7.462,7.462,0,0,0,2.844-2.718c.527-.832.987-1.726,1.491-2.723a10.969,10.969,0,0,0,1.207-5.067,15.748,15.748,0,0,0-.208-2.189c-.036-.254-.072-.508-.1-.763a7.237,7.237,0,0,0-.9-2.792,3.11,3.11,0,0,1-.23-.522c-.026-.07-.05-.142-.081-.209a5.465,5.465,0,0,0-1.108-1.7,11.141,11.141,0,0,0-1.069-.843c-.222-.162-.443-.322-.659-.491l-.183-.142a8.525,8.525,0,0,1-.947-.81l-.12.01-.52.047-.389-.517c-.075-.1-.137-.18-.195-.264a1.549,1.549,0,0,0-1.44-.737M474.974,56.324a8.889,8.889,0,0,0-.515,3.335c0,.112,0,.226.005.339a7.034,7.034,0,0,0,.064,1.08,6.335,6.335,0,0,0,.4,1.475,11.711,11.711,0,0,0,1.728,2.757q.108.129.22.257a2.766,2.766,0,0,1-.288-.593,4.478,4.478,0,0,1-1.209-1.776c-.063-.14-.126-.279-.195-.416a5.149,5.149,0,0,1-.5-1.992,16.727,16.727,0,0,1,.294-4.466m1.7,8.72h0M499.65,54.461c.014.1.029.207.044.311.032.226.064.455.094.686q0-.119,0-.235a3.344,3.344,0,0,0-.136-.761m-24.024-.59a8.807,8.807,0,0,0-.264.859q.076-.268.161-.537.051-.16.1-.322m.53-1.483c-.029.054-.059.107-.09.16s-.067.114-.076.14c-.048.213-.109.424-.176.63.106-.3.22-.611.343-.93" transform="translate(-459.746 -30.084)" fill="#fff"/>
  <path id="Path_1026" data-name="Path 1026" d="M551.569,33.085a2.344,2.344,0,0,1-2.3,1.528,6.117,6.117,0,0,1-1.321-.075A1.343,1.343,0,0,1,546.8,33.5a1.566,1.566,0,0,1,.642-1.534,2.262,2.262,0,0,1,2.762-.123c.391.262.892.379,1.136.841.063.119.132.235.228.4m-1.531.088c-.065-.256-.1-.457-.171-.646a.39.39,0,0,0-.194-.223,1.257,1.257,0,0,0-1.257.122.557.557,0,0,0-.238.623.568.568,0,0,0,.511.433,1.949,1.949,0,0,0,1.349-.309" transform="translate(-509.032 -22.785)" fill="#fff"/>
  <path id="Path_1027" data-name="Path 1027" d="M547.251,33.788a5.666,5.666,0,0,1-1.136-.1,2.173,2.173,0,0,1-1.8-1.683,2.349,2.349,0,0,1,.9-2.335,3.1,3.1,0,0,1,3.78-.191,3.2,3.2,0,0,0,.286.159,2.363,2.363,0,0,1,1.124.985c.037.07.077.14.125.223l.3.522-.166.381a3.188,3.188,0,0,1-3.047,2.03c-.116,0-.239,0-.368,0" transform="translate(-507.364 -21.121)" fill="#fff"/>
</svg>
