<svg id="Group_2160" data-name="Group 2160" xmlns="http://www.w3.org/2000/svg" xmlns:xlink="http://www.w3.org/1999/xlink" width="60.266" height="46.414" viewBox="0 0 60.266 46.414">
  <defs>
    <clipPath id="clip-path">
      <rect id="Rectangle_1794" data-name="Rectangle 1794" width="60.266" height="46.414" fill="none"/>
    </clipPath>
    <clipPath id="clip-path-2">
      <rect id="Rectangle_1793" data-name="Rectangle 1793" width="60.104" height="46.252" fill="none"/>
    </clipPath>
  </defs>
  <g id="Group_2159" data-name="Group 2159" clip-path="url(#clip-path)">
    <g id="Group_2158" data-name="Group 2158" transform="translate(0.081 0.081)">
      <g id="Group_2157" data-name="Group 2157" clip-path="url(#clip-path-2)">
        <g id="Group_2156" data-name="Group 2156">
          <g id="Group_2155" data-name="Group 2155" clip-path="url(#clip-path-2)">
            <path id="Path_1021" data-name="Path 1021" d="M60.224,17.928a47.316,47.316,0,0,1-.046,7.594c-.076.759-.065,1.533-.1,2.3-.1,1.991-.219,3.98-.3,5.973a37.937,37.937,0,0,0,.316,6.884c.333,2.288-.46,3.449-2.155,3a30.651,30.651,0,0,0-8.659-.535c-1.305.029-2.613.022-3.918.08-1.419.063-2.836.175-4.253.282-3.175.234-6.352.45-9.526.728-3.23.282-6.456.633-9.684.939-1.413.136-2.827.261-4.245.35-3.118.2-6.237.368-9.355.572-.565.037-1.126.188-1.691.27a4.3,4.3,0,0,1-1.185.124c-1.071-.136-1.465-.732-1.581-1.954-.331-3.5-.6-7.02-1.077-10.483-.259-1.879-.38-3.775-.641-5.645a59.975,59.975,0,0,1-.148-10.335,49.133,49.133,0,0,1,.78-5.338c.251-1.726.474-3.456.728-5.3-.957-.777-1.737-1.4-2.509-2.042A1.609,1.609,0,0,1,.3,3.718,1.4,1.4,0,0,1,1.6,2.493c3.169-.109,6.338-.268,9.507-.411a1.316,1.316,0,0,0,.339-.019c1.719-.533,3.492-.27,5.223-.645a3.516,3.516,0,0,1,1.016-.09,44.1,44.1,0,0,0,6.46-.35c2.5-.153,4.993-.243,7.489-.362C33.166.541,34.7.407,36.23.41c2.155,0,4.309.129,6.464.161A61.3,61.3,0,0,0,51.2.366a33.751,33.751,0,0,1,5.786.039,4.1,4.1,0,0,1,1.792.62c1.141.662,1.4,1.171,1.221,2.865a36.82,36.82,0,0,0-.122,5.06c.1,2.994.173,5.99.348,8.977M57.93,25.4c.091-2.6.1-5.216.046-7.821a69.705,69.705,0,0,0-.413-8.728,11.619,11.619,0,0,1,.072-4.119A5.882,5.882,0,0,0,57.645,3.6a9.375,9.375,0,0,0-4-.307,5.276,5.276,0,0,1-2.155,2.5,5.427,5.427,0,0,0-1,.867c-1.3,1.37-2.623,2.673-4.006,3.889-2.089,1.838-4.017,4.007-6.165,5.742a10.489,10.489,0,0,0-1.2,1.268c-1,1.134-1.994,2.281-2.985,3.427-2.026,2.342-4.2,4.449-5.88,7.321-.649,1.112-1.362,1.176-2.264.426a9.725,9.725,0,0,1-.668-.713c-1.031-1.076-2.06-2.156-3.1-3.22s-2.119-2.067-3.125-3.189A32.192,32.192,0,0,0,15,16.153c-.713-.472-1.4-1.005-2.1-1.524-2.381-1.77-4.761-3.544-7.261-5.408a19.965,19.965,0,0,0-.81,5.15c-.038.689-.055,1.383-.112,2.069a71.209,71.209,0,0,0,.323,14.7c.362,2.88.613,5.786.986,8.66A12.773,12.773,0,0,0,6.6,43.283c.184.078.291.168.394.161,2.323-.168,4.645-.35,6.966-.521,2.832-.207,5.667-.336,8.5-.626,3.053-.314,6.129-.3,9.159-1.037a2.572,2.572,0,0,1,1.179-.031,7.772,7.772,0,0,0,3.222-.049,41.537,41.537,0,0,1,9.338-.74,9.228,9.228,0,0,0,1.531-.061,32.148,32.148,0,0,1,8.661,0,1.118,1.118,0,0,0,1.383-.5c.034-.813.061-1.8.12-2.789.125-2.069.247-4.138.4-6.2.141-1.833.413-3.653.479-5.489M46.938,5.86a10.1,10.1,0,0,0,1.815-2.41,7.508,7.508,0,0,0-1.115-.214c-1.87-.051-3.74-.092-5.61-.109-1.189-.012-2.378.029-3.565.029-2.724,0-5.448-.107-8.168.015-3.118.143-6.229.5-9.342.735-1.134.085-2.273.024-3.405.112-3.736.294-7.468.626-11.2.947-.27.024-.58-.076-.812.487A10.688,10.688,0,0,0,6.539,6.5C8.1,7.749,9.67,8.983,11.253,10.18c1.931,1.461,3.907,2.824,5.819,4.33a59.9,59.9,0,0,1,8.845,8.149,9.681,9.681,0,0,0,2.437,2.3c1.329-1.494,2.583-2.916,3.846-4.323.57-.635,1.16-1.229,1.727-1.867a81.166,81.166,0,0,1,7.152-7.39c2-1.733,3.913-3.668,5.859-5.525" transform="translate(-0.249 -0.249)" fill="#fff"/>
          </g>
        </g>
      </g>
    </g>
  </g>
</svg>
