<svg id="Group_2161" data-name="Group 2161" xmlns="http://www.w3.org/2000/svg" width="60.082" height="55.806" viewBox="0 0 60.082 55.806">
  <path id="Path_1032" data-name="Path 1032" d="M674.759,3.518c-1.891-.505-3.667-1.166-5.665-.816.138-.525.46-.568.792-.611a9.084,9.084,0,0,1,5.173.728c.563.267,1.827.467,1.618.642.382.218.732.426,1.09.621.758.411,1.511.832,2.282,1.216.658.328,1.34.608,2.009.915.161.074.3.191.468.254A6.273,6.273,0,0,0,684.02,7a2.6,2.6,0,0,1,1.058.567c.41.294.765.661,1.17.963a3.678,3.678,0,0,1,1.311,1.256,1.059,1.059,0,0,0,.332.315c.538.412,1.088.81,1.618,1.232a4,4,0,0,1,.46.525c.081-.01.207-.021.333-.041.777-.122,1.849,3.312,2.372,4.5a.819.819,0,0,0,.192.33c.668.493.733,1.272,1,1.966a2.132,2.132,0,0,1,.323,1.2.086.086,0,0,0,.02.072c.648.434.5,1.218.8,1.806.011.022.041.051.035.065-.378.835.562,1.7-.018,2.383a4.106,4.106,0,0,1,.392.946,14.511,14.511,0,0,1,.052,1.653,2.847,2.847,0,0,1-.083.419,1.832,1.832,0,0,0-.072.652,3.03,3.03,0,0,1-.185,1.849,7.383,7.383,0,0,0-.291,1.71,1.807,1.807,0,0,1-.555,1.365,1,1,0,0,0-.249.705,3.023,3.023,0,0,1-.54,1.865.274.274,0,0,0-.062.139c-.026,1.063-.718,1.893-1.008,2.865a6.949,6.949,0,0,1-.512,1.091c-.226.448-.5.877-.679,1.34-.068.173-.744,1.338-1.04,1.816-.164.263-.544.422-.636.692a6.43,6.43,0,0,1-.333.818,14.6,14.6,0,0,1-2.313,2.849,19.576,19.576,0,0,1-2.627,2.28c-.845.693-1.667,1.414-2.479,2.145a15.259,15.259,0,0,1-3.415,2.376c-.71.353-1.4.752-2.115,1.088a15.22,15.22,0,0,1-5.39,1.65,27.832,27.832,0,0,1-2.991-.078c-.735-.03-1.47-.08-2.216-.123-.075.328-2.3-.193-2.754-.265-1.542-.242-3.078-.527-4.608-.833a28.283,28.283,0,0,1-5.739-2.121c-.586-.257-1.186-.488-1.754-.78-.727-.374-1.415-.825-2.144-1.193a19.152,19.152,0,0,1-3.22-2.072c-.522-.411-1.079-.783-1.569-1.229a22.781,22.781,0,0,1-2.007-2,22.176,22.176,0,0,1-1.983-2.637c-.812-1.3-1.542-2.656-2.25-4.017a5.989,5.989,0,0,1-.314-1.33,22.781,22.781,0,0,1-.44-8.095c.067-.58.242-1.146.365-1.72a9.337,9.337,0,0,0,.227-1.13,3.74,3.74,0,0,1,.657-2.013,3.734,3.734,0,0,0,.4-.994c.282-.793.514-1.607.846-2.377A13.1,13.1,0,0,1,640.269,20c.2-.327.361-.673.553-1,.232-.4.46-.8.72-1.176.492-.715.982-1.435,1.518-2.117a16.7,16.7,0,0,1,1.38-1.53c.981-.972,1.948-1.967,3-2.862,1.069-.911,2.221-1.725,3.354-2.558.762-.561,1.57-1.06,2.328-1.626a28.8,28.8,0,0,1,5.725-2.954,17.992,17.992,0,0,1,3.027-.846,3.592,3.592,0,0,1,.918-.026,48.122,48.122,0,0,1,6.184.614c1.155.174,2.3.438,3.549.682-.456.411-.974.2-1.418.434a1.508,1.508,0,0,0,.211.331,8.657,8.657,0,0,1,1.657,2.2,29.133,29.133,0,0,1,2.6,5.809c.171.509.348,1.017.543,1.517.18.463.357.58.819.5q2.38-.429,4.752-.893a3.441,3.441,0,0,0,.6-.242,5.03,5.03,0,0,0-.154-.615c-.371-.952-.7-1.925-1.15-2.84-.345-.7-.9-1.3-1.264-2a11.841,11.841,0,0,0-4.373-4.272.991.991,0,0,1-.586-1.014m.544,49.765c-.014.132-.029.264-.051.47.354-.184.109-.334.049-.472A1.072,1.072,0,0,0,676.549,53a4.812,4.812,0,0,1,1.047-.625,9.352,9.352,0,0,0,1.065-.607c1.485-1.127,2.955-2.274,4.424-3.423a1.061,1.061,0,0,0,.306-.409q.472-1.115.91-2.245a3.482,3.482,0,0,0,.17-.663c.052-.3.078-.609.119-.913.133-.963.286-1.925.4-2.891.087-.766-.144-.979-.9-.932a5.19,5.19,0,0,1-.607,0c-1.018-.058-2.039-.207-3.052-.166-1.84.075-1.589-.1-1.982,1.611-.337,1.469-.7,2.933-1.046,4.4a10.976,10.976,0,0,0-.375,1.638,9.366,9.366,0,0,1-1.424,4.406,3.249,3.249,0,0,0-.348.682c-.041.119.032.278.055.419m-9.585,1.8a3.437,3.437,0,0,1,1.13.093c.614.295,1.182.567,1.831.127.034-.023.1,0,.151,0a9.883,9.883,0,0,0,4.5-.858c.008-.4.015-.762.022-1.118-.11-.045.781-.763.947-1.489.046-.2.081-.4.132-.6.317-1.237.652-2.47.952-3.711.18-.744.289-1.5.462-2.25.364-1.567.752-3.129,1.118-4.7a1.532,1.532,0,0,0-.055-.467c-1.1.11-2.144.218-3.192.319-.1.009-.2-.035-.3-.028-.678.05-1.356.112-2.034.162-.724.054-1.422.475-2.177.145-.094-.041-.238.029-.358.054-.273.057-.542.138-.818.174-.623.082-1.255.112-1.874.218-1.079.184-2.153.4-3.224.622-.918.193-1.072.461-.878,1.391.152.727.317,1.452.444,2.183a34.1,34.1,0,0,0,1.131,5.015c.463,1.382.845,2.792,1.248,4.193a1.152,1.152,0,0,0,.846.892c.04.01.093-.026.14-.041l-.138-.334m-4.2-25.508a5.259,5.259,0,0,0,.707.039c1.219-.115,2.435-.262,3.655-.363,1.786-.147,3.574-.264,5.362-.391a33.5,33.5,0,0,0,4.407-.583c.892-.184,1.107-.106.921-1.393-.011-.076-.038-.149-.048-.225q-.251-1.786-.5-3.572c-.1-.76-.177-1.525-.311-2.28-.192-1.073-.421-2.14-.647-3.207-.144-.683-.449-.9-1.142-.806-.556.078-1.1.218-1.659.3-.732.1-1.469.176-2.2.264-.125.015-.248.065-.372.068-1.788.05-3.577.095-5.366.143-.307.008-.614.025-.921.039a.575.575,0,0,0-.606.562c-.085.6-.216,1.2-.288,1.807q-.512,4.264-1,8.531a9.333,9.333,0,0,0,.006,1.069m-.041,1.178c-.031.288-.073.515-.077.742-.013.769-.02,1.538-.015,2.307.007,1.127.012,2.254.043,3.381.028,1.023.066,2.047.142,3.067.038.516.207.585.727.461a22.536,22.536,0,0,1,2.319-.519c2.461-.319,4.927-.6,7.395-.865,1.3-.139,2.6-.212,3.906-.306,1.445-.1,1.447-.1,1.448-1.569,0-1.2-.061-2.41.012-3.609a38.749,38.749,0,0,0-.251-3.9.687.687,0,0,0-.72-.658c-.651.072-1.3.186-1.946.284a6.636,6.636,0,0,1-1.275.185,12.268,12.268,0,0,0-3.047.242,6.592,6.592,0,0,1-1.061.126c-.889.033-1.784-.012-2.667.072-1.447.138-2.877.439-4.34.438a3.356,3.356,0,0,0-.593.118m-22.731,1.156c.351-.025.6-.028.843-.064,1.6-.234,3.187-.508,4.787-.7,1.116-.137,2.246-.151,3.366-.256.8-.075.8-.134.892-.947.155-1.424.29-2.854.535-4.263.223-1.283.565-2.546.883-3.811.236-.94.51-1.871.782-2.8.133-.453.3-.9.461-1.375a4.62,4.62,0,0,0-.615-.175,57.136,57.136,0,0,1-6.026-.644.575.575,0,0,0-.655.294c-.642,1.072-1.3,2.136-1.917,3.22-.355.62-.652,1.272-.971,1.912-.16.319-.312.641-.467.962A28.138,28.138,0,0,0,639.32,27.1a21.026,21.026,0,0,0-.65,3.542,6.583,6.583,0,0,0,.079,1.265m22.626-15.114c.083-.368.151-.638.205-.91.255-1.275.5-2.551.763-3.824.114-.549.243-1.1.407-1.635.357-1.175.715-2.35,1.121-3.508a5.209,5.209,0,0,1,1.617-2.754,12.385,12.385,0,0,0-5.549.716,27.584,27.584,0,0,0-4.258,2.1c-1.714,1.1-3.374,2.288-5.044,3.457a18.424,18.424,0,0,0-1.939,1.5c-.94.866-1.838,1.781-2.716,2.711a6.5,6.5,0,0,0-1.082,1.5,3.423,3.423,0,0,0,.524.135c1.913.139,3.827.267,5.74.407.491.036.681-.278.815-.658a31.921,31.921,0,0,1,2.365-4.99,9.372,9.372,0,0,1,1.269-1.616c.463-.511.975-.978,1.483-1.447a16.18,16.18,0,0,1,2.825-2.355,7.767,7.767,0,0,1,.894-.366c.045.368.075.61.106.865a19.806,19.806,0,0,0-2,1.822,8.941,8.941,0,0,1-1.741,1.694c-.058.04-.081.129-.124.192a36.682,36.682,0,0,0-3.143,5.877,8.127,8.127,0,0,0-.28.958,73.887,73.887,0,0,0,7.738.124m-8.153.7c-1.425,4.252-2.655,8.462-2.694,13a20.5,20.5,0,0,0,2.921-.2c.858-.1,1.722-.169,2.583-.248,1.042-.1,2.085-.194,3.128-.284.352-.03.471-.226.492-.557.032-.483.1-.963.154-1.444.064-.581.135-1.161.192-1.743.028-.279.009-.563.05-.84.191-1.29.406-2.576.591-3.867a6.511,6.511,0,0,1,.407-2.62c.055-.094.012-.252,0-.379-.047-.531-.107-.555-.67-.572-1.756-.054-3.511-.13-5.267-.193-.632-.022-1.264-.029-1.889-.043M649.3,45.306c-.791.155-1.542.282-2.283.454a10.335,10.335,0,0,0-1.463.448c-.553.218-.612.524-.179.908q.947.839,1.946,1.617c.3.23.658.375.978.577.8.5,1.569,1.046,2.385,1.514.771.442,1.591.8,2.381,1.209.336.175.631.439.977.584.9.374,1.811.713,2.724,1.047a11.46,11.46,0,0,0,1.453.451c.361.079.839-.074,1.1.111.459.331.811.139,1.22.019a2.2,2.2,0,0,1,.492-.019l-.381.529a4.961,4.961,0,0,0,1.921.343c.341.023.492-.233.418-.572-.086-.393-.17-.786-.268-1.176s-.2-.795-.326-1.184c-.226-.705-.5-1.4-.7-2.11-.223-.787-.36-1.6-.591-2.384a14.1,14.1,0,0,1-.609-3,13.478,13.478,0,0,0-.318-1.652.406.406,0,0,0-.565-.354c-.555.2-1.161.241-1.685.432-.736.268-1.493.449-2.236.677-.864.265-1.764.414-2.644.632-.389.1-.758.289-1.15.348-.651.1-.658.093-.548.762a20.605,20.605,0,0,0,1.428,3.884,1.14,1.14,0,0,0,.232.3c.482.56.958,1.126,1.455,1.674.2.221.283.486.117.688a.688.688,0,0,1-.6.143,2.291,2.291,0,0,1-.854-.464,11.942,11.942,0,0,1-.861-.977c-.4-.449-.712-.986-1.346-1.206a.975.975,0,0,1-.572-.764c-.156-.671-.386-1.326-.587-1.987-.147-.483-.3-.965-.461-1.505m-.242-1.242c-.995-4.057-.681-8.141-.592-12.245-.377.028-.655.05-.932.068-1.58.1-3.165.156-4.739.314-1.167.117-2.32.368-3.479.559-.677.112-.673.133-.666.844a16.521,16.521,0,0,0,1.709,6.627,35.309,35.309,0,0,0,2.5,4.125,5.977,5.977,0,0,0,.711.9c.409.435.519.423,1.078.2s1.143-.433,1.726-.615c.852-.265,1.714-.5,2.682-.778m1.235-3.843c.172,1.048.31,1.985.485,2.915.107.569.248.644.789.505.645-.166,1.288-.338,1.926-.525,1.889-.553,3.773-1.125,5.665-1.668.726-.208.733-.182.686-.927a2.926,2.926,0,0,0-.02-.306,16.254,16.254,0,0,1-.2-4.721,19.833,19.833,0,0,0-.053-2.223c0-.612.08-1.224.088-1.836.007-.476-.123-.63-.583-.6-1.632.1-3.261.241-4.892.365-.905.069-1.809.175-2.715.195-.847.018-1.13.216-1.155,1.039-.044,1.456-.093,2.913-.1,4.37-.005,1.176.048,2.352.073,3.419m39.633-26.952a5.093,5.093,0,0,0-.512.215,7.528,7.528,0,0,1-2.2.846c-.5.106-1.006.185-1.506.293-1.261.272-1.327.389-.973,1.643a.562.562,0,0,0,.025.072,16.107,16.107,0,0,1,.713,3.829c.292,1.812.541,3.632.81,5.448.007.05.03.1.041.148.245,1.072.248,1.089,1.29.9a36.041,36.041,0,0,1,5.084-.739,7.078,7.078,0,0,0,1.194-.265.437.437,0,0,0,.358-.509,13.873,13.873,0,0,0-1-5.32c-.635-1.45-1.34-2.871-2.048-4.289-.385-.77-.838-1.505-1.269-2.271m-23.68-9.03c.557.6.512.569.078,1.207a6.507,6.507,0,0,0-.8,1.643c-.4,1.238-.747,2.494-1.067,3.755-.426,1.684-.808,3.381-1.2,5.073a6.975,6.975,0,0,0-.083.75A51.779,51.779,0,0,0,674.33,15.7a1.124,1.124,0,0,0,.039-.288,8.565,8.565,0,0,0-1.361-3.556,1.751,1.751,0,0,1-.247-.472c-.177-.531-.3-1.082-.51-1.6a6.425,6.425,0,0,0-.873-1.84c-.9-1.053-1.99-1.947-2.9-2.99-.641-.73-1.442-.615-2.227-.712m23.943,35.989a2.13,2.13,0,0,1,.118-.308c.3-.6.658-1.166.9-1.783.8-2.052,1.578-4.112,2.319-6.185a16.267,16.267,0,0,0,.7-4.388,2.2,2.2,0,0,0-.076-.5,35.115,35.115,0,0,0-7.37,1.045q.115,5.562.23,11.1l3.183,1.02m-7.8-24.769c-.168.027-.369.06-.569.09-1.414.215-2.826.455-4.245.633-.818.1-.915.209-.762,1q.551,2.862,1.046,5.735c.232,1.361.412,2.731.623,4.1.107.695.221.775.9.686.809-.107,1.618-.218,2.427-.322.762-.1,1.528-.168,2.286-.29.478-.077.559-.238.5-.688a21.3,21.3,0,0,1-.416-4.242.311.311,0,0,0-.035-.146,14.332,14.332,0,0,1-.868-3.628c-.18-.973-.034-2.046-.883-2.923m2.462,12.827c-1.086.079-2.079.127-3.065.231-.833.087-1.659.236-2.487.365a.463.463,0,0,0-.438.593c.025.152.059.3.075.454a39.71,39.71,0,0,1,.248,7.274c-.044.551-.037,1.105-.054,1.663l5.836.088a6.975,6.975,0,0,0,.258-2.65c.04-.983-.322-1.977.086-2.954.043-.1-.019-.25-.03-.377-.087-1.019-.19-2.037-.254-3.057a11.163,11.163,0,0,1,.064-1.261l-.239-.37m3.987-16.015c-.127-.154-.185-.238-.255-.307-.583-.57-1.153-1.154-1.758-1.7A12.309,12.309,0,0,0,684.705,8.5c-1.442-.8-2.979-1.422-4.567-2.161.855,1.251,1.725,2.373,2.426,3.592s1.246,2.555,1.881,3.886a11.111,11.111,0,0,0,4.389-1.545m-2.559,33.291a12.762,12.762,0,0,0,3.072-4.115,4.863,4.863,0,0,0-1.708-.764c-.619-.184-.852-.025-.933.613q-.184,1.443-.335,2.889c-.047.44-.062.883-.1,1.378M695.284,26l-.1-.077-.077.153c.039.016.088.055.113.043s.04-.072.062-.119m-.73-5.395a.635.635,0,0,0-.107.039c-.006,0,0,.056.011.061a.587.587,0,0,0,.115.024c-.006-.041-.013-.082-.019-.124" transform="translate(-636.057 -1.33)" fill="#fff"/>
  <path id="Path_1033" data-name="Path 1033" d="M668.859,55.806c-.513,0-1.022-.03-1.519-.058-.27-.016-.54-.031-.809-.042-.516-.021-1.031-.052-1.55-.083l-.424-.025a5.79,5.79,0,0,1-2.671-.211c-.177-.035-.319-.063-.4-.076-1.392-.218-2.865-.484-4.636-.838a24.492,24.492,0,0,1-5.121-1.83q-.377-.168-.755-.334c-.17-.074-.341-.147-.512-.219-.421-.178-.856-.362-1.28-.58-.367-.189-.724-.4-1.069-.6-.367-.213-.713-.414-1.071-.595a19.707,19.707,0,0,1-3.332-2.143c-.174-.138-.352-.27-.531-.4-.358-.266-.728-.542-1.074-.857a23.345,23.345,0,0,1-2.065-2.055A22.6,22.6,0,0,1,638,42.143c-.851-1.363-1.6-2.758-2.276-4.063a3.335,3.335,0,0,1-.294-1.063c-.022-.14-.043-.281-.076-.416a23.262,23.262,0,0,1-.454-8.331,10.087,10.087,0,0,1,.248-1.245c.044-.179.088-.358.126-.538.025-.115.052-.23.08-.345a5,5,0,0,0,.136-.7,4.4,4.4,0,0,1,.786-2.354,1.931,1.931,0,0,0,.211-.522c.031-.1.062-.2.1-.3.092-.259.179-.52.265-.781.179-.539.364-1.1.6-1.637a6.483,6.483,0,0,1,.61-1.046c.1-.156.209-.31.3-.47s.189-.335.279-.5.176-.33.27-.491l.073-.126c.21-.361.427-.734.674-1.093L639.74,16c.462-.673.94-1.369,1.459-2.029a17.191,17.191,0,0,1,1.435-1.592l.494-.491c.81-.808,1.648-1.643,2.54-2.4s1.854-1.464,2.781-2.141l.609-.446c.376-.277.764-.54,1.14-.794.395-.267.8-.544,1.185-.829a24.1,24.1,0,0,1,4.934-2.626q.46-.2.919-.4a12.766,12.766,0,0,1,2.407-.714c.245-.055.489-.11.731-.17a3.044,3.044,0,0,1,.894-.053c.066,0,.132.006.2.007a45.7,45.7,0,0,1,5.486.505l.161-.613a1.41,1.41,0,0,1,1.35-1.1,9.791,9.791,0,0,1,5.545.787,6.085,6.085,0,0,0,.776.254c.541.154.935.266,1.126.55l.11.064c.247.143.485.281.727.412l.469.256c.586.319,1.191.65,1.793.95.408.2.839.393,1.256.578.245.108.49.216.733.328a2.683,2.683,0,0,1,.278.153,1.349,1.349,0,0,0,.151.084c.159.06.313.13.468.2a3.086,3.086,0,0,0,.87.3,2.814,2.814,0,0,1,1.265.615l.1.073c.242.174.46.363.67.547.175.153.341.3.51.424.081.06.164.12.247.178A3.558,3.558,0,0,1,686.8,8.124c.027.023.057.043.086.064l.072.054c.2.154.4.305.6.457.344.258.687.515,1.023.783a2.161,2.161,0,0,1,.331.339c1.037-.1,1.676,1.393,2.612,3.845.164.428.305.8.417,1.05l.032.076.017.041a3.217,3.217,0,0,1,1,1.718c.05.163.1.327.162.487.032.082.069.161.1.239a2.461,2.461,0,0,1,.278.957,1.668,1.668,0,0,1,.163.194l.023-.007.011.055a2.84,2.84,0,0,1,.386,1.058,2.513,2.513,0,0,0,.135.49.69.69,0,0,1,.061.671c-.072.159-.018.378.08.719a2.135,2.135,0,0,1,.047,1.421l.012.025a2.42,2.42,0,0,1,.289.81,11.649,11.649,0,0,1,.056,1.419v.31a1.573,1.573,0,0,1-.068.429.886.886,0,0,0-.023.093c-.012.075-.028.152-.044.228a1.454,1.454,0,0,0-.034.195,3.617,3.617,0,0,1-.214,2.213,4.774,4.774,0,0,0-.211,1.165c-.013.131-.027.26-.042.39l-.009.078a2.35,2.35,0,0,1-.749,1.694.66.66,0,0,0-.04.219,3.671,3.671,0,0,1-.61,2.175,5.3,5.3,0,0,1-.625,1.924,6.789,6.789,0,0,0-.4.959,5.06,5.06,0,0,1-.421.943c-.046.086-.091.172-.135.258-.079.158-.165.314-.25.47a7.727,7.727,0,0,0-.4.815c-.105.265-.865,1.554-1.094,1.922a1.955,1.955,0,0,1-.446.472c-.044.037-.107.089-.138.12a7.041,7.041,0,0,1-.354.861,9.083,9.083,0,0,1-1.7,2.215c-.249.263-.485.511-.707.771a13.384,13.384,0,0,1-2.022,1.817c-.232.181-.463.362-.69.547-.736.6-1.517,1.279-2.457,2.125a15.852,15.852,0,0,1-3.564,2.478c-.3.147-.587.3-.879.457-.4.215-.822.438-1.251.638a15.607,15.607,0,0,1-5.627,1.712c-.246.016-.491.023-.735.023m3.817-3.616-.027,1.361-.385.173a10.484,10.484,0,0,1-1.632.578,13.51,13.51,0,0,0,2.49-.767l.161-1.477-.172-.4c-.143.195-.289.362-.4.494l-.03.035m-10.582,1.875.052.01c.241.048.774.154,1.227.221a2.052,2.052,0,0,1-.481-.877l-.244-.855c-.31-1.093-.632-2.223-1-3.311a34.1,34.1,0,0,1-1.137-5.006l-.018-.105c-.093-.532-.209-1.076-.321-1.6l-.119-.559c-.2-.949-.044-1.531.548-1.881a1.015,1.015,0,0,1-.6-.186,1.241,1.241,0,0,1-.434-.947c-.083-1.128-.121-2.249-.143-3.1-.03-1.1-.036-2.224-.042-3.307v-.088c0-.7,0-1.464.015-2.322a4.781,4.781,0,0,1,.049-.547c.01-.08.021-.164.031-.255l.051-.479h-.007l-.007-.621c0-.131-.006-.253-.011-.369a5.048,5.048,0,0,1,.009-.781c.326-2.866.661-5.737,1-8.535.042-.356.1-.707.163-1.047.045-.257.09-.514.127-.773a1.36,1.36,0,0,1,.329-.741h-.043l.078-.737c.011-.1.018-.19.025-.273a3.637,3.637,0,0,1,.073-.556l.234-1.013c.308-1.336.627-2.719.97-4.074.357-1.411.71-2.653,1.078-3.8a7.178,7.178,0,0,1,.889-1.815l.08-.118.061-.089c-.031-.035-.066-.073-.1-.108a4.469,4.469,0,0,0-1.243,2.185l-.069.2c-.406,1.16-.765,2.34-1.113,3.482-.139.456-.263.957-.392,1.576-.169.816-.33,1.634-.492,2.452q-.134.684-.271,1.368c-.037.188-.081.374-.131.591l-.192.842-.439.012a1.537,1.537,0,0,1,.24.782l.008.059a1.057,1.057,0,0,1-.1.718,2.886,2.886,0,0,0-.262,1.439,7.718,7.718,0,0,1-.059.936c-.1.723-.216,1.445-.329,2.167-.089.567-.178,1.135-.262,1.7a3.586,3.586,0,0,0-.024.393c0,.138-.008.277-.021.414-.04.4-.085.8-.132,1.2l-.062.548c-.016.144-.033.287-.05.43-.041.34-.08.662-.1.985a1.163,1.163,0,0,1-.588,1.03.974.974,0,0,1,.267.181,1.3,1.3,0,0,1,.335.994c0,.308-.025.613-.045.907-.022.32-.042.622-.043.922,0,.262.019.53.038.814a7.808,7.808,0,0,1,.01,1.485,15.588,15.588,0,0,0,.191,4.529,2.138,2.138,0,0,1,.026.3l0,.078c.057.9-.1,1.238-.786,1.492a1.04,1.04,0,0,1,.568.133,1.135,1.135,0,0,1,.538.789c.033.165.072.33.11.5a7.871,7.871,0,0,1,.219,1.239,13.679,13.679,0,0,0,.583,2.858c.127.43.226.865.322,1.286.087.384.17.745.271,1.1.117.412.257.815.4,1.241.1.282.2.564.287.848.132.413.239.832.338,1.226.091.362.17.727.25,1.092l.023.1a1.18,1.18,0,0,1-.208,1.011m2.854-.977a1.919,1.919,0,0,1,.852.155c.667.321.875.375,1.167.176a.777.777,0,0,1,.575-.112,9.2,9.2,0,0,0,3.79-.638l.011-.584a.979.979,0,0,1,.358-.808,2.8,2.8,0,0,0,.609-.919c.017-.074.032-.149.048-.224.027-.13.054-.26.087-.389.1-.41.212-.818.319-1.227.212-.811.431-1.65.631-2.476.091-.375.162-.751.238-1.15.068-.357.138-.727.223-1.094.193-.83.392-1.658.592-2.486q.215-.892.427-1.785c-.826.084-1.629.165-2.432.243a1.215,1.215,0,0,1-.336-.021l-.018,0c-.331.025-.661.052-.991.079s-.671.055-1.007.08a3.888,3.888,0,0,0-.6.115,2.943,2.943,0,0,1-1.728.04c-.041.012-.082.022-.121.031-.087.018-.174.039-.261.06a5.728,5.728,0,0,1-.608.123c-.259.034-.52.059-.781.085-.372.037-.722.071-1.067.13-.965.165-2.012.367-3.2.617a1.677,1.677,0,0,0-.42.126,1.842,1.842,0,0,0,.059.475l.117.553c.115.538.234,1.094.331,1.651l.018.105a32.552,32.552,0,0,0,1.088,4.812c.374,1.117.7,2.262,1.013,3.37l.242.851.006.019.243.015c.125.009.247.006.363,0h.162m9.664-.391a1.1,1.1,0,0,1-.39.318l-.6.312c.337-.145.681-.3,1.035-.466.4-.186.782-.391,1.19-.608.3-.161.6-.322.912-.474a14.544,14.544,0,0,0,3.264-2.274c.956-.861,1.751-1.549,2.5-2.166.234-.192.474-.38.714-.567a12.206,12.206,0,0,0,1.827-1.63c.158-.185.321-.364.484-.538a2.565,2.565,0,0,1-.247.187l-1.119.727.088-1.332c.01-.154.019-.3.027-.447.019-.329.037-.64.07-.957.111-1.039.221-1.988.337-2.9a1.452,1.452,0,0,1,.565-1.091,1.1,1.1,0,0,1,.518-.172l-.778-.249-.249-12.006.389-.186a2.129,2.129,0,0,1,.279-.1c-.589-.056-.858-.443-1.1-1.489a1.188,1.188,0,0,1-.051-.2q-.124-.84-.244-1.678c-.178-1.235-.363-2.512-.565-3.762-.063-.39-.106-.782-.149-1.161a8.919,8.919,0,0,0-.521-2.515,1.266,1.266,0,0,1-.054-.154A2.16,2.16,0,0,1,682.7,13.4a1.088,1.088,0,0,1,.134-.179l-.108.022-.224-.469c-.2-.414-.386-.826-.572-1.236-.417-.916-.812-1.781-1.285-2.6s-1.017-1.588-1.6-2.407c-.265-.373-.533-.751-.8-1.142l-.958-1.4c-.241-.13-.48-.26-.716-.389l-.466-.254c-.252-.137-.5-.281-.76-.43l-.759-.435-.173-.049-.336-.1c0,.1.047.157.289.315a12.5,12.5,0,0,1,4.6,4.522,8.256,8.256,0,0,0,.564.879,8.5,8.5,0,0,1,.708,1.133c.346.707.624,1.444.893,2.156.092.246.185.491.28.734a3.039,3.039,0,0,1,.137.5c.013.063.027.129.044.2l.136.555-.383.159.178.184a3.945,3.945,0,0,1,.974,2.583c.024.241.046.469.086.684.051.276.1.552.14.829A9.709,9.709,0,0,0,683.4,20.4a.956.956,0,0,1,.1.475,13.9,13.9,0,0,0,.256,3.073c.054.345.108.69.155,1.036a1.1,1.1,0,0,1-.639,1.324l.189-.014.394-.028.573.884-.012.219c-.009.159-.022.31-.035.455a5.085,5.085,0,0,0-.029.725c.046.729.113,1.473.178,2.194l.075.848c0,.014.007.033.011.051a1.041,1.041,0,0,1-.029.639,3.277,3.277,0,0,0-.093,1.618A7.741,7.741,0,0,1,684.551,35c-.009.212,0,.426,0,.642a5.223,5.223,0,0,1-.309,2.238l-.174.417-2.376-.036q.242.02.485.034a4.523,4.523,0,0,0,.528,0,1.331,1.331,0,0,1,1.606,1.674c-.076.667-.173,1.338-.266,1.987-.044.306-.089.613-.131.92-.015.11-.028.221-.041.332-.023.2-.047.4-.082.6a4.136,4.136,0,0,1-.2.792c-.316.813-.616,1.553-.917,2.264a1.72,1.72,0,0,1-.509.675c-1.481,1.159-2.934,2.293-4.432,3.43a5.281,5.281,0,0,1-.8.476c-.113.058-.226.116-.336.178s-.238.127-.36.188a2.265,2.265,0,0,0-.547.331,1.819,1.819,0,0,1-1.07.554m-13.337.4h0Zm-.864-.061c.173.021.35.032.531.042-.043-.2-.087-.4-.134-.594Zm-2.857-.908a1.34,1.34,0,0,1,.815.223c.1.075.119.087.454-.021.062-.02.125-.04.189-.059a1.63,1.63,0,0,1,.512-.047c.046,0,.1,0,.15,0l1.065-.028,0-.02c-.094-.373-.195-.768-.315-1.143-.087-.274-.182-.545-.276-.817-.148-.425-.3-.865-.428-1.314-.112-.393-.2-.789-.289-1.172-.1-.419-.186-.815-.3-1.2a14.875,14.875,0,0,1-.634-3.141,6.748,6.748,0,0,0-.188-1.03c-.024-.1-.048-.207-.071-.31-.227.064-.452.111-.671.157a5.485,5.485,0,0,0-.743.189c-.5.182-1,.325-1.493.463-.259.073-.518.147-.776.225-.57.175-1.15.3-1.712.422-.323.07-.646.14-.967.219-.131.032-.271.083-.419.136a4.182,4.182,0,0,1-.779.222,10.5,10.5,0,0,0,.87,2.507c.173.391.352.794.509,1.208.015.017.032.034.047.051s.054.059.08.088l.353.411c.355.414.721.843,1.091,1.249a1.18,1.18,0,0,1,.231,1.429c.614.24,1.222.464,1.806.678a10.971,10.971,0,0,0,1.367.426,1.59,1.59,0,0,0,.309,0c.069,0,.143-.005.218-.005m20.44-12.614c-.038.114-.086.336-.133.552-.031.143-.065.3-.107.487-.231,1.006-.472,2.009-.713,3.012l-.334,1.392c-.042.178-.091.355-.141.532a5.448,5.448,0,0,0-.217,1,10.012,10.012,0,0,1-1.409,4.524,4.125,4.125,0,0,1,.693-.406c.1-.05.2-.1.3-.153.126-.072.256-.139.385-.2a4.154,4.154,0,0,0,.606-.353c1.491-1.131,2.939-2.262,4.416-3.417a.407.407,0,0,0,.1-.144c.3-.7.591-1.427.9-2.227a2.861,2.861,0,0,0,.134-.535c.03-.176.05-.353.071-.53.014-.12.028-.24.044-.36q.064-.466.133-.93c.092-.639.188-1.3.261-1.946a1.825,1.825,0,0,0,.013-.194,2.072,2.072,0,0,0-.211,0,6.053,6.053,0,0,1-.686,0c-.336-.019-.673-.048-1.009-.077a15.707,15.707,0,0,0-1.978-.088l-.451.016c-.263.008-.534.017-.668.038m-1.848-1.461.084.644c.006.045.015.087.024.127a1.281,1.281,0,0,1,.019.579c-.173.74-.351,1.48-.529,2.219-.2.825-.4,1.649-.589,2.475-.08.345-.146.693-.212,1.042-.075.4-.153.807-.251,1.214-.2.838-.423,1.683-.637,2.5q-.16.61-.317,1.221c-.028.108-.05.218-.073.328-.015.07-.029.141-.045.211q.04-.065.077-.123a8.672,8.672,0,0,0,1.321-4.1,6.539,6.539,0,0,1,.262-1.26c.045-.16.09-.321.128-.481l.334-1.4c.24-1,.48-2,.71-3,.04-.176.073-.332.1-.469.236-1.1.455-1.459,1.287-1.585l-.741-.011.02-.677c.005-.175.008-.349.011-.522.006-.382.013-.777.045-1.173a39.4,39.4,0,0,0-.247-7.152c-.008-.082-.024-.162-.039-.242-.011-.059-.022-.117-.031-.176a1.164,1.164,0,0,1,.186-.9,1.089,1.089,0,0,1,.37-.319c-.546-.1-.817-.483-.936-1.25-.078-.506-.152-1.013-.226-1.52-.123-.843-.25-1.715-.4-2.565-.311-1.82-.652-3.692-1.043-5.721a1.551,1.551,0,0,1,.127-1.27l.016-.022a1.365,1.365,0,0,1-.8-.881c-.219-.563-.411-1.122-.554-1.547a28.477,28.477,0,0,0-2.543-5.676l-.042-.069a7.831,7.831,0,0,0-1.48-1.971,1.276,1.276,0,0,1-.291-.393c-.015-.029-.031-.06-.051-.092l-.358-.578c-.375-.073-.745-.141-1.114-.2.4.446.829.864,1.282,1.3.518.5,1.054,1.025,1.54,1.592a5.2,5.2,0,0,1,.836,1.629c.049.134.1.268.151.4.137.347.24.7.339,1.035.059.2.117.4.184.6a1.064,1.064,0,0,0,.152.288,9.2,9.2,0,0,1,1.478,3.824,1.018,1.018,0,0,1-.016.423c-.005.025-.012.054-.016.088l-.081.462a1.606,1.606,0,0,1,.812,1.207l.069.329c.2.946.408,1.925.581,2.9.092.513.155,1.031.217,1.532.032.258.063.517.1.774q.213,1.545.432,3.09l.067.479c0,.012.007.028.011.043a1.677,1.677,0,0,1,.037.178c.149,1.033.038,1.561-.5,1.859a1.338,1.338,0,0,1,.581.294,1.367,1.367,0,0,1,.477.979c.018.484.07.963.125,1.47a14.522,14.522,0,0,1,.125,2.494c-.049.794-.036,1.618-.023,2.416.006.384.012.768.012,1.152,0,1.125-.1,1.664-.608,1.942ZM646.32,48.382q.253.157.507.3l-.221-.14c-.093-.059-.19-.111-.287-.163m2.11-5.158.632,2.064c.056.187.115.373.174.558.151.475.307.966.424,1.471.043.187.109.273.141.284a2.539,2.539,0,0,1,1,.662c-.144-.377-.306-.744-.478-1.132a11.637,11.637,0,0,1-.967-2.836,1.338,1.338,0,0,1,.107-1.1.85.85,0,0,1,.18-.183.956.956,0,0,1-.329-.131,1.328,1.328,0,0,1-.527-.957c-.124-.658-.229-1.316-.34-2.012-.047-.3-.1-.6-.148-.918l-.009-.092c-.007-.319-.017-.649-.028-.984-.024-.8-.049-1.619-.045-2.454.006-1.322.047-2.662.086-3.957l.013-.43a1.741,1.741,0,0,1,.451-1.262l-.248,0,.005-.662a42.307,42.307,0,0,1,2.728-13.2l.157-.466.155,0,.094-.33c.035-.122.063-.235.091-.342a4.235,4.235,0,0,1,.221-.7,36.694,36.694,0,0,1,3.2-5.982c-.137.137-.269.276-.4.418l-.054.06a8.547,8.547,0,0,0-1.129,1.437,31.341,31.341,0,0,0-2.317,4.885,1.692,1.692,0,0,1-.666.92l.209.061-.223.661q-.079.232-.157.455c-.108.309-.21.6-.3.894l-.038.129c-.254.868-.516,1.765-.738,2.649l-.161.633c-.261,1.025-.53,2.085-.712,3.129-.2,1.17-.333,2.384-.458,3.558l-.071.664a2.08,2.08,0,0,1-.328,1.1l.178-.013-.016.734c-.013.6-.031,1.208-.049,1.811a37.585,37.585,0,0,0,.622,10.26l.153.623Zm-3.787,2.206c.573.5,1.161.988,1.75,1.446a3.525,3.525,0,0,0,.488.292c.148.079.3.158.437.247.287.181.571.367.855.553l.446.292a2.069,2.069,0,0,1-.261-.641c-.105-.454-.246-.9-.4-1.37-.061-.191-.121-.383-.179-.575l-.285-.931-.114.022c-.54.1-1.05.2-1.556.314a10.022,10.022,0,0,0-1.186.35m1.583-34.668c-.743.657-1.46,1.372-2.156,2.066l-.5.495a15.8,15.8,0,0,0-1.324,1.468c-.492.627-.958,1.3-1.409,1.96l-.085.123c-.218.317-.413.652-.62,1.007l-.073.127c-.085.147-.165.3-.246.447-.1.189-.2.378-.311.561s-.225.355-.344.531a5.369,5.369,0,0,0-.492.83c-.211.488-.378.993-.555,1.529-.09.27-.179.54-.274.808-.028.08-.054.162-.08.245a2.929,2.929,0,0,1-.416.924,3.05,3.05,0,0,0-.527,1.672,5.944,5.944,0,0,1-.167.9c-.025.1-.05.208-.072.313-.041.192-.088.384-.135.575a8.923,8.923,0,0,0-.219,1.081,21.94,21.94,0,0,0,.424,7.86c.045.181.072.359.1.529a2.33,2.33,0,0,0,.159.652c.667,1.281,1.4,2.648,2.224,3.971a21.281,21.281,0,0,0,1.923,2.556A22.24,22.24,0,0,0,643,45.927c.3.271.626.516.974.774.188.14.375.28.559.425s.371.288.557.424c-.506-.406-1.008-.83-1.5-1.264a1.2,1.2,0,0,1-.5-1.127.983.983,0,0,1,.1-.282,1.252,1.252,0,0,1-1.445-.491,6.571,6.571,0,0,1-.791-1c-.239-.381-.489-.757-.739-1.134a21.914,21.914,0,0,1-1.806-3.072,17.335,17.335,0,0,1-1.768-6.9,1.915,1.915,0,0,1,.166-.988H636.8l-.049-.666c-.01-.14-.027-.275-.043-.4a3.839,3.839,0,0,1-.032-1l.059-.446a18.612,18.612,0,0,1,.616-3.206c.09-.287.176-.575.262-.863a20.644,20.644,0,0,1,1.1-3.069l.091-.189c.125-.261.251-.523.38-.782.091-.181.179-.362.267-.544.225-.462.457-.939.721-1.4.45-.788.925-1.575,1.384-2.336q.27-.448.539-.9a1.29,1.29,0,0,1,.667-.564l.211-.409a7.215,7.215,0,0,1,1.19-1.655c.759-.8,1.431-1.488,2.066-2.1m-8.247,21.344v.148a16.089,16.089,0,0,0,1.65,6.372,20.656,20.656,0,0,0,1.7,2.882c.256.386.512.772.757,1.162a5.215,5.215,0,0,0,.632.8c.054.057.093.1.12.122.075-.025.176-.066.222-.085.585-.235,1.182-.448,1.777-.633s1.2-.357,1.838-.538l.251-.071a41.494,41.494,0,0,1-.516-9.991c.01-.355.021-.71.031-1.066l-.2.014c-.484.031-.967.057-1.451.084-1.074.059-2.185.12-3.264.228-.783.078-1.586.224-2.363.365-.358.065-.716.13-1.074.189l-.109.018m48.064,7.867c0,.022-.007.048-.011.077-.1.765-.19,1.556-.283,2.4a15.7,15.7,0,0,0,1.427-2.078,6.584,6.584,0,0,0-1.063-.384l-.07-.019m-36.421-1.145c.049.3.1.593.142.879.108.678.21,1.318.329,1.95.694-.178,1.308-.346,1.877-.512q1.108-.324,2.215-.655c1.15-.342,2.3-.683,3.454-1.014l.077-.022.138-.04c0-.06-.007-.126-.011-.182,0-.04,0-.081-.005-.122A.845.845,0,0,0,657.83,39a16.88,16.88,0,0,1-.2-4.913,6.752,6.752,0,0,0-.015-1.235c-.021-.3-.043-.6-.042-.911,0-.344.024-.682.046-1.009.017-.26.034-.507.04-.753-1.123.072-2.264.162-3.369.249l-1.385.108c-.268.02-.536.044-.8.068-.634.056-1.29.115-1.948.129a1.256,1.256,0,0,0-.466.058,2.111,2.111,0,0,0-.036.333l-.013.43c-.039,1.287-.08,2.618-.086,3.923,0,.81.021,1.622.044,2.406.01.323.019.64.027.947m38.457.523a3.485,3.485,0,0,1,.349.244l.34.273-.1.36c.116-.2.233-.4.334-.58Zm-15.956.393h0m-11.374-9.773c-.008.073-.014.141-.015.2-.014.847-.02,1.6-.015,2.291v.088c.006,1.076.012,2.189.042,3.279.021.795.056,1.829.129,2.877.178-.043.356-.089.533-.135A14.652,14.652,0,0,1,663.2,38.2c2.253-.292,4.677-.576,7.409-.867,1.01-.108,2.035-.178,3.025-.245l.9-.063a7.787,7.787,0,0,0,.8-.08,7.893,7.893,0,0,0,.024-.823c0-.377-.006-.753-.012-1.13-.013-.823-.027-1.673.025-2.519a13.338,13.338,0,0,0-.12-2.267c-.055-.507-.112-1.032-.133-1.563-.008-.011-.009-.015,0-.017-.453.05-.919.124-1.368.2l-.526.082c-.125.019-.25.045-.375.071a4.111,4.111,0,0,1-1.033.121,11.529,11.529,0,0,0-2.881.23,7.325,7.325,0,0,1-1.17.139c-.341.012-.683.014-1.024.015-.557,0-1.083,0-1.6.054-.5.047-1,.116-1.495.182a21.534,21.534,0,0,1-2.9.259m25.578,7.416,2.155.691c.072-.138.147-.274.221-.411a9.767,9.767,0,0,0,.543-1.1c.887-2.279,1.643-4.3,2.313-6.167a14.836,14.836,0,0,0,.647-4.007,48.212,48.212,0,0,0-6.088.873Zm-7.856-.509,4.67.071a5.413,5.413,0,0,0,.074-1.28c0-.243-.009-.484,0-.723a6.714,6.714,0,0,0-.051-.921,4.646,4.646,0,0,1,.138-2.137,1.8,1.8,0,0,1-.029-.19l-.075-.842c-.065-.729-.133-1.483-.181-2.229a6.131,6.131,0,0,1,.032-.923c0-.016,0-.032,0-.049l-.473.031c-.718.047-1.4.092-2.068.163-.613.064-1.24.166-1.848.264l-.461.073c.021.113.041.227.053.342a40.576,40.576,0,0,1,.25,7.4c-.025.311-.033.625-.039.952m14.9-4.964h0M643.225,16.2l-.528.875c-.455.754-.926,1.534-1.368,2.308-.242.424-.455.861-.68,1.323-.091.186-.181.371-.273.556-.127.253-.249.508-.371.763l-.091.191a19.309,19.309,0,0,0-1.025,2.873c-.088.294-.176.588-.268.88a17.349,17.349,0,0,0-.566,2.98l-.06.451a2.016,2.016,0,0,0,.012.469c.053,0,.1-.01.152-.017.532-.078,1.064-.161,1.6-.243,1.048-.162,2.131-.33,3.206-.462.662-.081,1.329-.12,1.974-.158.465-.027.946-.056,1.411-.1.049,0,.16-.015.252-.028.012-.087.024-.2.036-.3l.073-.683c.128-1.2.259-2.431.47-3.644.19-1.095.467-2.181.734-3.23l.159-.629c.229-.909.494-1.819.752-2.7l.037-.129c.071-.245.15-.479.233-.719-.663-.074-1.344-.119-2-.163a25.115,25.115,0,0,1-3.865-.461m9.138.638a41.443,41.443,0,0,0-2.489,11.645c.708-.024,1.386-.1,2.157-.195.626-.076,1.259-.132,1.871-.185l.731-.065.453-.042c.855-.079,1.71-.158,2.566-.232.024-.341.065-.677.1-1,.016-.14.033-.279.049-.418l.063-.553c.045-.394.09-.788.129-1.182.011-.105.013-.212.015-.318a4.644,4.644,0,0,1,.038-.553c.084-.572.174-1.143.264-1.714.112-.716.224-1.432.326-2.149a6.609,6.609,0,0,0,.046-.776,4.246,4.246,0,0,1,.372-1.954c0-.027-.007-.053-.01-.078h-.029c-1.068-.033-2.135-.074-3.2-.115q-1.033-.04-2.068-.077c-.43-.015-.861-.023-1.289-.032Zm9.76.1c-.038.27-.085.538-.132.806-.059.337-.115.655-.153.976-.335,2.8-.67,5.664-1,8.526a2.707,2.707,0,0,0-.009.368c.487-.046.975-.1,1.463-.149.718-.075,1.461-.154,2.2-.214,1.352-.111,2.726-.206,4.054-.3l1.315-.092a32.851,32.851,0,0,0,4.32-.571l.215-.043c.077-.015.165-.032.235-.048a4.424,4.424,0,0,0-.055-.553c0-.012-.007-.028-.011-.043a1.749,1.749,0,0,1-.038-.183l-.067-.48q-.217-1.547-.432-3.095c-.037-.264-.069-.529-.1-.794-.062-.5-.12-.982-.205-1.459-.17-.952-.375-1.92-.573-2.857l-.07-.33a.736.736,0,0,0-.1-.292.538.538,0,0,0-.1-.006,1.4,1.4,0,0,0-.2.016c-.262.037-.524.088-.8.144s-.563.112-.856.154c-.487.07-.976.125-1.466.18q-.376.042-.752.086a.715.715,0,0,0-.084.019,1.661,1.661,0,0,1-.349.054q-1.666.047-3.331.089l-2.036.054c-.219.006-.438.016-.658.027Zm13.974-1.4c.007.047.018.107.032.18.393,2.039.735,3.919,1.048,5.748.148.866.276,1.746.4,2.6.073.5.146,1.006.224,1.509.009.056.016.1.024.141l.127-.015.832-.111q.8-.107,1.6-.211c.268-.035.537-.065.806-.1.461-.053.937-.108,1.4-.18-.043-.319-.094-.638-.144-.956a15.579,15.579,0,0,1-.276-3.258,11.122,11.122,0,0,1-.752-2.921c-.043-.267-.086-.533-.135-.8s-.076-.536-.1-.795a3.242,3.242,0,0,0-.4-1.53l-.2.03q-.621.095-1.242.193c-.987.155-2.007.316-3.02.442-.093.012-.166.022-.221.031m17.323,9.78.025.154a.677.677,0,0,0,.022-.092v-.042Zm-.884-.271a3.061,3.061,0,0,1,.333.014l.088-.178a1.231,1.231,0,0,1-.262.087c-.1.022-.2.049-.3.077h.14m-6.937-.895a1.251,1.251,0,0,1,.036.125c.037.161.077.335.11.459.123-.017.285-.047.408-.069l.738-.138a30.486,30.486,0,0,1,4.44-.611,2.988,2.988,0,0,0,.636-.135c.09-.026.18-.051.27-.074a12.842,12.842,0,0,0-.944-4.95c-.612-1.4-1.283-2.754-2.033-4.258-.256-.511-.54-1-.843-1.526l-.111-.192a8.222,8.222,0,0,1-2.3.862c-.247.053-.495.1-.742.145s-.509.094-.762.149a5.809,5.809,0,0,0-.627.162,6,6,0,0,0,.155.647,10.043,10.043,0,0,1,.616,2.881c.042.38.082.738.14,1.1.2,1.261.389,2.543.568,3.784q.119.822.239,1.644m7.844.272.019.009V24.4c-.006.012-.011.023-.018.034M682.2,20.967h0m-.027-.183v0ZM653.16,14.731c2.282.139,4.452.125,6.344.079.031-.136.06-.261.085-.387q.136-.681.27-1.364c.162-.822.323-1.644.494-2.465.137-.66.271-1.2.422-1.693.351-1.155.714-2.348,1.129-3.535l.068-.194a8.826,8.826,0,0,1,.733-1.7,11.413,11.413,0,0,0-2.575.281l.162,1.313-.261.233c-.215.193-.436.377-.654.561A10.364,10.364,0,0,0,658.1,7.051a9.886,9.886,0,0,1-1.769,1.74.932.932,0,0,1-.053.089,35.412,35.412,0,0,0-3.085,5.772c-.011.025-.022.051-.031.078m-8.5-.4,2.219.156q1.5.1,3,.213a.2.2,0,0,0,.05,0c-.008,0,.029-.052.087-.214a32.535,32.535,0,0,1,2.413-5.1,9.533,9.533,0,0,1,1.3-1.677l.054-.059c.451-.5.943-.953,1.419-1.393l.106-.1c.176-.163.35-.328.524-.494l.265-.252c-.48.247-.94.507-1.39.8-1.438.925-2.867,1.929-4.249,2.9l-.773.542a18.009,18.009,0,0,0-1.87,1.443c-.815.752-1.668,1.6-2.682,2.678a6.743,6.743,0,0,0-.47.552m21.3-10.646a2.1,2.1,0,0,1-.346.694l-.077.112a5.822,5.822,0,0,0-.721,1.472c-.36,1.116-.705,2.331-1.055,3.714-.339,1.342-.657,2.717-.963,4.047l-.218.944a51.475,51.475,0,0,0,9.719-.838,7.428,7.428,0,0,0-1.166-2.911,2.393,2.393,0,0,1-.343-.657c-.071-.214-.136-.432-.2-.649-.094-.323-.184-.628-.3-.917-.055-.14-.109-.284-.162-.429a4.121,4.121,0,0,0-.6-1.222c-.447-.521-.938-1-1.457-1.5-.484-.471-.984-.957-1.443-1.481a1.109,1.109,0,0,0-.672-.376M671,4.128a12.151,12.151,0,0,1,1.16,1.7l.041.068a29.8,29.8,0,0,1,2.665,5.941c.138.411.323.951.532,1.488.014.037.027.066.037.089l.041-.007c1.388-.25,2.876-.53,4.68-.879-.093-.24-.184-.48-.274-.72-.269-.715-.524-1.39-.843-2.039a7.421,7.421,0,0,0-.6-.955,9.3,9.3,0,0,1-.654-1.027,11.338,11.338,0,0,0-4.146-4.022A1.762,1.762,0,0,1,672.8,2.71l-.4-.112a10.589,10.589,0,0,0-4.278-.605c.673.112,1.338.249,2.037.393.376.077.759.156,1.154.233l1.314.255-.995.9a1.668,1.668,0,0,1-.627.359m17.941,7.084.225.4c.086.153.173.3.26.456a4.406,4.406,0,0,0-.485-.855m-8.194-4.588c.374.539.728,1.076,1.054,1.643.5.878.931,1.813,1.343,2.717.112.247.226.5.341.744a10.908,10.908,0,0,0,2.962-.935l-.163-.161c-.406-.4-.827-.818-1.253-1.2-.172-.155-.342-.316-.512-.478a7.688,7.688,0,0,0-1.48-1.2c-.737-.408-1.5-.769-2.293-1.13m7.565,4.563-.44.3-.082.056a2.964,2.964,0,0,1,.335-.145c.059-.023.126-.048.2-.08l.286-.118-.26.031ZM656.226,8.864h0m-.017-1.715-.1.092-.18.166q.143-.124.28-.258" transform="translate(-634.72 -0.001)" fill="#fff"/>
</svg>
