<svg id="Group_2163" data-name="Group 2163" xmlns="http://www.w3.org/2000/svg" width="54.551" height="56.092" viewBox="0 0 54.551 56.092">
  <path id="Path_1028" data-name="Path 1028" d="M261.286,5.629c.54,0,1.08.01,1.62,0,.721-.017,1.443-.038,2.163-.081a2.309,2.309,0,0,1,1.477.165.705.705,0,0,0,.514.1,3.809,3.809,0,0,1,1.608.052,7.732,7.732,0,0,0,1.516.04,10.647,10.647,0,0,1,3.753.417,19.367,19.367,0,0,0,4.594.717,3.462,3.462,0,0,1,2.2,1.061,5.269,5.269,0,0,1,1.6,2.406A54.887,54.887,0,0,1,284.3,18.37a6.714,6.714,0,0,0,.3,1.152,10.54,10.54,0,0,1,.513,3.3,43.128,43.128,0,0,0,.228,4.654,25.585,25.585,0,0,1,.17,3.242,40.353,40.353,0,0,0,.2,4.545c.05.461-.051.936-.039,1.4.022.863.087,1.724.113,2.587.024.794.009,1.589.033,2.383.016.539.068,1.077.107,1.615a3.61,3.61,0,0,1,.043.429c-.054,1.08-.1,2.161-.184,3.239A4.911,4.911,0,0,1,285.218,49a1.088,1.088,0,0,0-.13.3,12.2,12.2,0,0,1-1.555,3.32,2.852,2.852,0,0,1-.671.83,2.825,2.825,0,0,0-.742.914,7.131,7.131,0,0,1-1.814,2.243c-.252.206-.507.41-.742.635a2.889,2.889,0,0,1-1.7.866,3.931,3.931,0,0,0-1.021.353,5.675,5.675,0,0,1-2.321.456,25.265,25.265,0,0,0-3.234.259,13.244,13.244,0,0,1-3.026.03,45.265,45.265,0,0,0-6.368-.365c-.792.019-1.585-.015-2.376.063a3.528,3.528,0,0,0-1.348.366,2.352,2.352,0,0,1-.927.255c-1.622.1-3.246.185-4.87.255-1.408.061-2.818.094-4.227.145a12.35,12.35,0,0,1-2.9-.3c-.637-.129-1.3-.164-1.915-.351-1.241-.376-2.481-.776-3.68-1.265a9.715,9.715,0,0,1-2.657-1.44,3.149,3.149,0,0,1-.736-.777,11.549,11.549,0,0,1-1.545-3.675c-.107-.6-.317-1.186-.461-1.782-.1-.42-.191-.845-.252-1.272-.2-1.394-.4-2.789-.556-4.188-.1-.9-.148-1.8-.184-2.7-.056-1.4-.066-2.8-.039-4.2.009-.466-.107-.934-.109-1.4,0-1.009.043-2.018.043-3.026,0-.863-.06-1.726-.05-2.588.008-.72.067-1.44.122-2.159a11.533,11.533,0,0,0,.149-1.4,32.54,32.54,0,0,1,.249-4.541c.066-.717.032-1.433.144-2.157a11.681,11.681,0,0,1,.547-2.072c.32-.92.589-1.858.89-2.785a6.951,6.951,0,0,1,1.632-2.9,2.127,2.127,0,0,0,.395-.637,3.446,3.446,0,0,1,1.165-1.406,16.371,16.371,0,0,1,3.492-2.158.315.315,0,0,0,.1-.045c1.065-.937,2.473-.923,3.724-1.339a8.167,8.167,0,0,1,1.259-.3c.676-.11,1.358-.18,2.036-.271,1.289-.173,2.585-.3,3.862-.54a21.614,21.614,0,0,1,3.008-.354c1.806-.078,3.61-.191,5.414-.29,0,.01,0,.021,0,.031M234.8,32.754h-.064c.041,1.589.066,3.179.126,4.768s.2,3.176.221,4.766a39.519,39.519,0,0,0,.778,6.886c.263,1.38.63,2.74.956,4.107a1.847,1.847,0,0,0,.163.4,6.918,6.918,0,0,0,3.035,3,16.281,16.281,0,0,0,3.363,1.182c1.288.341,2.651.332,3.937.727a2.23,2.23,0,0,0,.644.029c.4,0,.794-.027,1.191-.017.577.014,1.156.093,1.731.071,1.226-.047,2.452-.127,3.676-.22a19.677,19.677,0,0,0,3.526-.532,7.983,7.983,0,0,1,1.812-.305c1.551-.037,3.1-.026,4.656.016,1.118.03,2.233.164,3.35.209a22.7,22.7,0,0,0,4.439-.089c1.143-.179,2.291-.3,3.446-.381a5.743,5.743,0,0,0,3.911-2.105,14.268,14.268,0,0,1,1.472-1.723,2.03,2.03,0,0,0,.34-.55l1.111-1.856c.111-.186.239-.364.335-.557a11.45,11.45,0,0,0,1.192-5.237c-.011-2.2-.014-4.407-.034-6.61-.012-1.3-.038-2.6-.085-3.9A7.631,7.631,0,0,1,283.9,33.1a12.922,12.922,0,0,0,0-1.8,19.869,19.869,0,0,0,.033-2.49c-.066-1.368-.191-2.732-.289-4.1-.026-.36-.04-.719-.067-1.079-.062-.827-.077-1.662-.207-2.478-.159-1-.411-1.98-.632-2.967a16.371,16.371,0,0,1-.539-2.424,13.088,13.088,0,0,0-.805-3.1c-.206-.649-.533-1.259-.731-1.909a3.5,3.5,0,0,0-.747-1.306,4.368,4.368,0,0,0-1.247-1.013,3.5,3.5,0,0,0-1.468-.338,17.824,17.824,0,0,1-4.464-.8,8.821,8.821,0,0,0-3.1-.36,13.878,13.878,0,0,1-1.947-.06,12.46,12.46,0,0,0-3.029.027,4.233,4.233,0,0,1-.863,0c-.722-.019-1.444-.085-2.165-.058-1.589.059-3.178.138-4.764.259a21.313,21.313,0,0,0-3.224.384c-.351.081-.709.133-1.065.192-2.208.368-4.45.522-6.637,1.025a8.746,8.746,0,0,0-2.973.956c-.964.63-1.945,1.236-2.907,1.869a4.041,4.041,0,0,0-.744.625,10.691,10.691,0,0,0-2.444,3.926c-.112.344-.249.679-.355,1.025a21.613,21.613,0,0,0-1.263,6.356,6.129,6.129,0,0,1-.092.751c-.053.429-.134.857-.155,1.288-.076,1.552-.144,3.1-.191,4.657-.026.864,0,1.729,0,2.594" transform="translate(-232.262 -4.67)" fill="#fff"/>
  <path id="Path_1029" data-name="Path 1029" d="M246.181,59.1a14.021,14.021,0,0,1-2.772-.323c-.227-.046-.458-.079-.689-.112a8.646,8.646,0,0,1-1.3-.258c-1.131-.343-2.461-.765-3.753-1.291a10.437,10.437,0,0,1-2.879-1.574,3.835,3.835,0,0,1-.923-1,12.288,12.288,0,0,1-1.642-3.943,10.25,10.25,0,0,0-.253-1c-.069-.243-.139-.486-.2-.731-.125-.516-.21-.946-.267-1.352l-.061-.43c-.175-1.236-.356-2.514-.5-3.781-.106-.936-.153-1.879-.189-2.759-.055-1.357-.068-2.788-.039-4.254a4.671,4.671,0,0,0-.048-.615,6.451,6.451,0,0,1-.061-.766c0-.531.01-1.062.022-1.593.011-.479.021-.958.021-1.437,0-.391-.013-.782-.025-1.173-.015-.463-.03-.943-.025-1.423.007-.7.061-1.39.113-2.061l.012-.153c.016-.215.048-.416.079-.611a3.614,3.614,0,0,0,.068-.685,27.979,27.979,0,0,1,.191-4.02l.06-.638c.025-.268.034-.541.045-.829a11.46,11.46,0,0,1,.106-1.378,12.642,12.642,0,0,1,.584-2.219c.193-.554.372-1.132.545-1.689.111-.36.223-.72.339-1.078a7.805,7.805,0,0,1,1.838-3.233,1.621,1.621,0,0,0,.223-.389,4.294,4.294,0,0,1,1.447-1.746c.215-.151.428-.3.641-.459a13.306,13.306,0,0,1,2.981-1.776,6.208,6.208,0,0,1,2.8-1.134,10.824,10.824,0,0,0,1.113-.281,9.084,9.084,0,0,1,1.387-.334c.456-.075.915-.131,1.358-.186.234-.029.468-.058.7-.089.374-.05.749-.1,1.123-.144.892-.111,1.813-.226,2.7-.39a22.269,22.269,0,0,1,3.124-.368c1.263-.054,2.549-.128,3.793-.2l1.612-.09.84-.046,0,.079c.268,0,.536,0,.8-.005.673-.016,1.4-.036,2.132-.08l.21-.016a2.731,2.731,0,0,1,1.714.278,3.452,3.452,0,0,1,1.446,0c.12.019.241.039.363.051a6.986,6.986,0,0,0,1.351.039,11.614,11.614,0,0,1,4.045.44,18.818,18.818,0,0,0,4.4.691,4.268,4.268,0,0,1,2.743,1.272,6.129,6.129,0,0,1,1.838,2.783,55.47,55.47,0,0,1,2.005,7.989,5.863,5.863,0,0,0,.266,1.007,11.254,11.254,0,0,1,.558,3.563l0,.214a40.713,40.713,0,0,0,.219,4.35,26.351,26.351,0,0,1,.176,3.348,39.145,39.145,0,0,0,.2,4.451,5.08,5.08,0,0,1-.01.956c-.014.185-.028.36-.024.517.011.446.034.892.057,1.338.021.415.043.83.055,1.244s.015.81.017,1.214c0,.39,0,.779.016,1.168.011.373.04.744.071,1.137l.034.444c0,.033.008.067.014.1a2.06,2.06,0,0,1,.031.429l-.031.637c-.042.859-.085,1.748-.154,2.626a5.718,5.718,0,0,1-.682,2.422.916.916,0,0,0-.044.082,10.136,10.136,0,0,1-1.3,2.942c-.113.2-.227.391-.337.589a3.719,3.719,0,0,1-.878,1.075,2,2,0,0,0-.526.652,8.011,8.011,0,0,1-2.026,2.5l-.066.054c-.224.182-.436.354-.625.536a3.72,3.72,0,0,1-2.183,1.093,2.555,2.555,0,0,0-.616.216l-.178.077a6.628,6.628,0,0,1-2.658.522,20.475,20.475,0,0,0-2.666.2l-.461.054a14.072,14.072,0,0,1-3.218.029,43.816,43.816,0,0,0-6.251-.359c-.26.006-.519.007-.778.008-.534,0-1.038,0-1.536.052a2.685,2.685,0,0,0-1.039.272,3.18,3.18,0,0,1-1.266.351c-1.489.094-3.088.178-4.886.257-.869.037-1.738.064-2.607.091q-.813.026-1.626.053-.164.006-.326.006m1.12-3,.209,0c.237.006.473.022.709.038a9.335,9.335,0,0,0,.969.033c1.065-.041,2.223-.111,3.645-.218a18.893,18.893,0,0,0,3.377-.506,8.778,8.778,0,0,1,2-.332c1.469-.035,3.005-.029,4.7.015.624.017,1.247.065,1.85.111.5.038,1.012.078,1.512.1l.294.012a20.266,20.266,0,0,0,3.982-.092c1.08-.169,2.23-.3,3.514-.389a4.9,4.9,0,0,0,3.349-1.828c.162-.182.314-.384.476-.6a6.792,6.792,0,0,1,1.054-1.185c.021-.036.038-.076.057-.115.041-.085.084-.169.13-.247l1.112-1.857c.042-.07.086-.14.13-.209a3.24,3.24,0,0,0,.174-.291,10.676,10.676,0,0,0,1.1-4.86l-.008-2c-.006-1.535-.011-3.07-.026-4.605-.013-1.413-.041-2.683-.084-3.88a4.458,4.458,0,0,0-.071-.555,3.606,3.606,0,0,1-.045-1.365,2.889,2.889,0,0,0,0-.809,5.441,5.441,0,0,1-.023-.886,19.065,19.065,0,0,0,.031-2.386c-.045-.928-.119-1.878-.19-2.8q-.05-.641-.1-1.283c-.012-.174-.022-.348-.032-.522s-.021-.369-.035-.553c-.018-.246-.033-.492-.047-.739-.034-.583-.066-1.134-.152-1.671-.116-.724-.28-1.433-.454-2.184-.056-.244-.113-.488-.168-.733s-.127-.507-.2-.76a8.923,8.923,0,0,1-.361-1.791,9.006,9.006,0,0,0-.556-2.262c-.072-.214-.144-.428-.212-.643-.089-.279-.206-.559-.331-.856a11.014,11.014,0,0,1-.4-1.062,2.675,2.675,0,0,0-.573-1,3.564,3.564,0,0,0-1-.822,2.664,2.664,0,0,0-1.108-.248,18.781,18.781,0,0,1-4.673-.832,7.886,7.886,0,0,0-2.812-.331,11,11,0,0,1-1.675-.032l-.39-.027-.324-.02a10.23,10.23,0,0,0-2.5.035,3.38,3.38,0,0,1-.83.025c-.068,0-.137-.008-.2-.01-.245-.007-.491-.018-.736-.03-.478-.023-.929-.044-1.375-.028-1.805.067-3.309.149-4.732.257l-.392.029a17.615,17.615,0,0,0-2.707.335c-.306.071-.609.12-.9.167l-.217.036c-.854.142-1.721.254-2.558.362-1.333.172-2.712.35-4.028.653-.192.044-.385.085-.578.125a6.121,6.121,0,0,0-2.125.716c-.452.3-.907.585-1.362.875-.516.328-1.032.657-1.543.993a3.215,3.215,0,0,0-.59.494,9.764,9.764,0,0,0-2.263,3.619c-.053.163-.112.325-.171.486s-.127.348-.181.525a21.145,21.145,0,0,0-1.225,6.111,3.893,3.893,0,0,1-.066.64c-.011.071-.023.143-.032.214-.017.137-.037.274-.056.411-.041.285-.08.555-.093.814-.089,1.81-.149,3.285-.19,4.641-.017.58-.013,1.178-.008,1.757,0,.271,0,.541,0,.813v.822h-.043q.008.311.014.622c.025,1.08.05,2.2.091,3.293.024.634.061,1.269.1,1.9.055.942.111,1.915.124,2.883a38.375,38.375,0,0,0,.763,6.741c.185.968.428,1.954.664,2.907.1.388.192.775.284,1.163a1.456,1.456,0,0,0,.095.211,6.045,6.045,0,0,0,2.676,2.635,15.6,15.6,0,0,0,3.191,1.115,14.289,14.289,0,0,0,1.728.3,13.815,13.815,0,0,1,2.241.432,1.908,1.908,0,0,0,.21,0c.062,0,.124,0,.184-.005.153,0,.305-.005.458-.009.184-.005.367-.01.55-.01m-12.453-3.215c.146.272.3.547.463.829a2.611,2.611,0,0,0,.548.553c.114.1.232.185.354.27a7.554,7.554,0,0,1-1.365-1.651m-2.464-16.6v.035c-.028,1.432-.015,2.83.038,4.154.034.848.08,1.755.18,2.638.14,1.244.319,2.51.493,3.735l.061.43c.049.351.125.73.236,1.192.054.222.117.443.18.663a11.714,11.714,0,0,1,.291,1.168,7.131,7.131,0,0,0,.511,1.619c-.011-.035-.02-.071-.029-.108-.092-.384-.187-.766-.281-1.15-.241-.974-.49-1.983-.684-3a39.987,39.987,0,0,1-.792-7.031c-.012-.93-.068-1.885-.121-2.808-.03-.514-.06-1.028-.083-1.543M284.24,47.805v0m-.95-10.361q.018,2.112.022,4.224l.008,2a12.809,12.809,0,0,1-.3,2.851,4.562,4.562,0,0,0,.278-1.324c.066-.854.109-1.73.151-2.577l.032-.639c0-.025-.009-.06-.014-.1-.012-.077-.023-.154-.028-.231l-.033-.434c-.031-.4-.063-.8-.076-1.217s-.015-.806-.017-1.209,0-.782-.016-1.174c0-.058,0-.116-.006-.174m-50.994-4.05c-.011.5-.022,1-.02,1.5a5.151,5.151,0,0,0,.049.573c.016.131.032.264.044.4-.031-.825-.053-1.658-.072-2.479m50.922.219q.007.214.013.432a2.314,2.314,0,0,0,0-.353c0-.026-.006-.052-.008-.079m-.154-2.072c0,.022-.009.045-.013.068a2.378,2.378,0,0,0,.057.747c0,.007,0,.013,0,.02q-.028-.409-.047-.835m-50.74-3.5c-.029.419-.051.841-.056,1.252,0,.322,0,.642.013.971h.021c0-.587-.009-1.194.009-1.8q.007-.21.013-.425m.425-6.4-.025.267q-.017.172-.033.342l.013-.081a2.591,2.591,0,0,0,.044-.373c0-.052,0-.1,0-.155m.748-4.593c-.021.062-.042.123-.063.185a10.667,10.667,0,0,0-.511,1.925,9.357,9.357,0,0,0-.084,1.1,21.007,21.007,0,0,1,.659-3.215m31.646-13.7h0" transform="translate(-230.597 -3.005)" fill="#fff"/>
  <path id="Path_1030" data-name="Path 1030" d="M295.142,39.031a3.1,3.1,0,0,0-.17.639c-.036,1.116-.064,2.233-.071,3.349-.009,1.479.139,2.953.048,4.437-.162,2.631-.185,5.268-.14,7.9a19.029,19.029,0,0,1-.146,3.017,12.92,12.92,0,0,1-1.295,3.655,10.043,10.043,0,0,1-3.1,3.554,13.5,13.5,0,0,1-2.115,1.3,5.144,5.144,0,0,1-1.343.388c-.457.093-.939.077-1.387.2a4.369,4.369,0,0,1-2.34-.122c-.452-.124-.913-.219-1.369-.328a5.792,5.792,0,0,1-2.189-1.128c-.755-.579-1.307-1.337-1.992-1.974a2.781,2.781,0,0,1-.624-1,6.952,6.952,0,0,1-.619-3.695,12.2,12.2,0,0,1,.363-1.463,6.654,6.654,0,0,0,.307-.808c.2-1.4,1.241-2.24,2.08-3.213a1.926,1.926,0,0,1,.545-.339c.5-.28,1.032-.519,1.511-.836a8.038,8.038,0,0,1,7.442-.827,3,3,0,0,1,1.256,1.144c.158.191.04.575-.171.791a.546.546,0,0,1-.783.077,6.656,6.656,0,0,0-2.145-1,4.378,4.378,0,0,0-3.163.105,13.9,13.9,0,0,0-2.558,1.144,4.636,4.636,0,0,0-2.535,3.2,15.184,15.184,0,0,1-.453,1.673,5.338,5.338,0,0,0-.043,2.366,1.931,1.931,0,0,0,.605,1.1c.7.674,1.3,1.448,1.959,2.165a2.493,2.493,0,0,0,.74.616,7.9,7.9,0,0,0,4.51.842c.642-.1,1.275-.256,1.91-.39a3.624,3.624,0,0,0,1.549-.959,14.2,14.2,0,0,0,1.716-1.653,7.911,7.911,0,0,0,1.509-2.463,12.823,12.823,0,0,0,.7-4.465c-.024-1.621.049-3.243.072-4.865a8.192,8.192,0,0,0-.047-.97,8.23,8.23,0,0,1,.137-2.372,3.084,3.084,0,0,0-.018-1.607,1.7,1.7,0,0,1,.029-1.065,4.148,4.148,0,0,0,.119-1.5,8.773,8.773,0,0,1,0-.973,32.213,32.213,0,0,0-.209-5.485,3.326,3.326,0,0,1-.038-.754.983.983,0,0,1,.875-.824,1.235,1.235,0,0,1,.588.188.774.774,0,0,1,.269.332,5.8,5.8,0,0,0,3.568,2.762,1.835,1.835,0,0,0,1.371-.038c.334-.137.672-.265,1.014-.378a.5.5,0,0,1,.688.456.871.871,0,0,1-.238.7,3.269,3.269,0,0,1-3.8.559c-.663-.271-1.276-.663-1.915-.994a3.654,3.654,0,0,0-.457-.157" transform="translate(-260.994 -24.723)" fill="#fff"/>
  <path id="Path_1031" data-name="Path 1031" d="M282.882,66.747a6.348,6.348,0,0,1-1.69-.264c-.288-.079-.579-.146-.871-.212-.158-.036-.315-.072-.472-.109a6.516,6.516,0,0,1-2.5-1.278,10.477,10.477,0,0,1-1.32-1.27c-.248-.269-.482-.523-.732-.755a3.5,3.5,0,0,1-.83-1.3,7.789,7.789,0,0,1-.668-4.134,12.21,12.21,0,0,1,.362-1.485l.023-.078a3.054,3.054,0,0,1,.188-.47,1.594,1.594,0,0,0,.1-.227,5.775,5.775,0,0,1,1.8-3.109c.162-.175.323-.349.477-.528a1.966,1.966,0,0,1,.655-.464c.04-.02.08-.039.118-.06.179-.1.361-.194.543-.289a9.995,9.995,0,0,0,.912-.513,8.888,8.888,0,0,1,8.174-.92,3.14,3.14,0,0,1,1.455,1.185c.057.073.114.145.172.216a1.465,1.465,0,0,1-.218,1.907,1.38,1.38,0,0,1-1.923.125,4.035,4.035,0,0,0-1.369-.66c-.177-.061-.354-.122-.528-.189a3.545,3.545,0,0,0-2.579.109,13.027,13.027,0,0,0-2.406,1.07,3.831,3.831,0,0,0-2.15,2.614,8.619,8.619,0,0,1-.319,1.252c-.053.171-.107.342-.154.514a4.485,4.485,0,0,0-.026,2,1.1,1.1,0,0,0,.363.646c.468.451.889.939,1.3,1.41.23.266.46.532.7.79a2.089,2.089,0,0,0,.469.421,7,7,0,0,0,4.039.777c.434-.067.864-.162,1.32-.263l.546-.119a2.613,2.613,0,0,0,1.057-.672l.122-.105a13.506,13.506,0,0,0,1.617-1.553,7.158,7.158,0,0,0,1.362-2.2,11.979,11.979,0,0,0,.649-4.179c-.016-1.082.011-2.174.037-3.229.014-.553.027-1.107.035-1.66a7.361,7.361,0,0,0-.043-.871A8.98,8.98,0,0,1,290.808,46a2.313,2.313,0,0,0,.014-1.182,2.531,2.531,0,0,1,.017-1.574,3.3,3.3,0,0,0,.087-1.2,8.336,8.336,0,0,1,0-.957l0-.109a31.032,31.032,0,0,0-.2-5.344,4.1,4.1,0,0,1-.042-.945,1.814,1.814,0,0,1,1.682-1.579,2.049,2.049,0,0,1,1.015.291,1.523,1.523,0,0,1,.613.69,4.94,4.94,0,0,0,3.1,2.348,1,1,0,0,0,.774-.024c.379-.156.728-.286,1.068-.4a1.355,1.355,0,0,1,1.173.135,1.375,1.375,0,0,1,.608,1.032,1.7,1.7,0,0,1-.449,1.337,3.954,3.954,0,0,1-1.6.991,4.048,4.048,0,0,1-3.14-.218,12.681,12.681,0,0,1-1.368-.69l-.042-.024c-.031,1.043-.048,1.941-.053,2.783,0,.569.018,1.155.038,1.722.032.9.066,1.825.008,2.761-.145,2.359-.189,4.849-.139,7.838a19.792,19.792,0,0,1-.155,3.148,13.277,13.277,0,0,1-1.321,3.8l-.045.095a10.836,10.836,0,0,1-3.346,3.857,14.431,14.431,0,0,1-2.245,1.382,5.357,5.357,0,0,1-1.446.441l-.115.023a6.586,6.586,0,0,1-.708.094,4.069,4.069,0,0,0-.63.09,4.193,4.193,0,0,1-1.085.14m-6.85-5.766a1.842,1.842,0,0,0,.4.656c.3.276.563.566.822.846a9.089,9.089,0,0,0,1.109,1.077l.043.032c-.068-.069-.129-.136-.183-.194-.25-.271-.491-.55-.732-.83-.4-.463-.779-.9-1.192-1.3a3.23,3.23,0,0,1-.266-.288m16.268-7.9c0,.425-.005.851,0,1.271a14.326,14.326,0,0,1-.186,2.577c.022-.11.041-.22.056-.332a18.28,18.28,0,0,0,.138-2.885q-.005-.319-.009-.631m.1-6.518a7.012,7.012,0,0,0-.083,1.878c0,.022,0,.044.007.066.019-.664.044-1.31.077-1.945m.053-2.909-.019.066a.914.914,0,0,0-.041.555q.048.139.08.275c0-.3-.01-.594-.02-.9m-.042-8.866a.235.235,0,0,0-.076.084,2.945,2.945,0,0,0,.039.54c.089.659.153,1.333.194,2.041.013-.041.026-.08.039-.119.02-.059.041-.12.059-.187l.235-.85.836.282c.058.02.111.035.158.05l.05.015a5.443,5.443,0,0,1-1.452-1.807l-.009-.017c-.033-.016-.057-.025-.074-.032" transform="translate(-259.329 -23.058)" fill="#fff"/>
</svg>
